<svg width="24" height="24" viewBox="0 0 24 24" fill="none" xmlns="http://www.w3.org/2000/svg">
<path d="M18.3719 3.09866C18.2586 3.034 18.1304 3 18 3C17.985 3 17.9699 3.00045 17.9548 3.00136C17.7021 3.01662 17.4742 3.15833 17.3487 3.37818C17.284 3.49143 17.25 3.61959 17.25 3.75C17.25 3.76508 17.2505 3.78016 17.2514 3.79521C17.2667 4.0479 17.4084 4.27584 17.6282 4.40134L22.2595 7.04509C22.259 7.04531 22.2596 7.04811 22.2596 7.04811C22.2607 7.05166 22.259 7.05498 22.259 7.05498L20.5365 10.5L18 10.5C17.5858 10.5 17.25 10.8358 17.25 11.25C17.25 11.6642 17.5858 12 18 12L20.539 12C20.9652 12.0009 21.3275 11.7764 21.3275 11.7764C21.6898 11.5519 21.8771 11.1729 21.8771 11.1729L23.6035 7.72002C23.8679 7.1855 23.6956 6.61461 23.6956 6.61461C23.5232 6.04372 23.0031 5.74241 23.0031 5.74241L18.3719 3.09866Z" fill="white"/>
<path d="M1.74056 7.04509L6.37181 4.40134C6.60565 4.26786 6.74999 4.01926 6.74999 3.75C6.74999 3.73962 6.74977 3.72925 6.74934 3.71888C6.74437 3.59911 6.71076 3.48228 6.65133 3.37818C6.51784 3.14434 6.26925 3 5.99999 3C5.98961 3 5.97923 3.00022 5.96886 3.00065C5.8491 3.00562 5.73227 3.03923 5.62817 3.09866L0.996918 5.74241C0.476777 6.04372 0.304433 6.61461 0.304433 6.61461C0.132089 7.1855 0.396479 7.72002 0.396479 7.72002L2.12292 11.1729C2.3102 11.5519 2.6725 11.7764 2.6725 11.7764C3.0348 12.0009 3.46104 12 3.46104 12L5.99999 12C6.4142 12 6.74999 11.6642 6.74999 11.25C6.74999 10.8358 6.4142 10.5 5.99999 10.5L3.46351 10.5L1.741 7.05498C1.73935 7.05166 1.74042 7.04812 1.74042 7.04812C1.74129 7.04526 1.74056 7.04509 1.74056 7.04509Z" fill="white"/>
<path fill-rule="evenodd" clip-rule="evenodd" d="M18 3C18.4142 3 18.75 3.33579 18.75 3.75V19.5C18.75 19.5 18.75 20.1213 18.3107 20.5607C18.3107 20.5607 17.8714 21 17.25 21H6.75003C6.75003 21 6.12871 21 5.68937 20.5607C5.68937 20.5607 5.25003 20.1213 5.25003 19.5V3.75C5.25003 3.33579 5.58577 3 5.99999 3H9.00003C9.41425 3 9.75003 3.33579 9.75003 3.75C9.75003 3.75 9.75003 4.68198 10.409 5.34099C10.409 5.34099 11.0681 6 12 6C12 6 12.932 6 13.591 5.34099C13.591 5.34099 14.25 4.68198 14.25 3.75C14.25 3.33579 14.5858 3 15 3H18ZM15.681 4.5H17.25V19.5H6.75003V4.5H8.31902C8.31902 4.5 8.5253 5.57857 9.34838 6.40165C9.34838 6.40165 10.4467 7.5 12 7.5C12 7.5 13.5533 7.5 14.6517 6.40165C14.6517 6.40165 15.4748 5.57857 15.681 4.5Z" fill="white"/>
</svg>
