<svg width="128" height="128" viewBox="0 0 128 128" fill="none" xmlns="http://www.w3.org/2000/svg">
<path d="M126.682 63.9616C126.682 98.5472 98.6369 126.592 64.0513 126.592C29.4657 126.592 1.4209 98.5472 1.4209 63.9616C1.4209 29.376 29.4657 1.33121 64.0513 1.33121C98.6369 1.33121 126.682 29.3632 126.682 63.9616Z" fill="white"/>
<path d="M64.0513 4.37759C31.1425 4.37759 4.46729 31.0528 4.46729 63.9616C4.46729 96.8704 31.1425 123.546 64.0513 123.546C96.9601 123.546 123.635 96.8704 123.635 63.9616C123.635 31.0528 96.9601 4.37759 64.0513 4.37759ZM64.0513 107.699C39.8977 107.699 20.3137 88.1152 20.3137 63.9616C20.3137 39.808 39.8977 20.224 64.0513 20.224C69.6321 20.224 74.9697 21.2736 79.8721 23.168C93.0817 28.3008 103.194 39.6672 106.573 53.6576C107.366 56.96 107.789 60.416 107.789 63.9616C107.789 88.1152 88.2049 107.699 64.0513 107.699Z" fill="#1E1F1E"/>
<path d="M79.8722 23.168C79.0274 23.0912 78.157 23.0528 77.2866 23.0528C61.1074 23.0528 47.9746 36.1728 47.9746 52.3648C47.9746 68.5568 61.0946 81.6768 77.2866 81.6768C93.0434 81.6768 105.895 69.248 106.56 53.6576C103.194 39.6672 93.0946 28.3008 79.8722 23.168ZM77.2866 77.0176C63.6674 77.0176 52.6338 65.984 52.6338 52.3648C52.6338 38.7584 63.6674 27.712 77.2866 27.712C90.9058 27.712 101.939 38.7456 101.939 52.3648C101.939 65.984 90.9058 77.0176 77.2866 77.0176Z" fill="#1E1F1E"/>
<path d="M101.939 52.3648C101.939 53.1584 101.901 53.9392 101.824 54.72C101.799 55.0144 101.76 55.3088 101.722 55.616C101.21 59.5328 99.7762 63.1552 97.6386 66.2784C97.549 66.4192 97.4466 66.5472 97.357 66.688C96.3586 68.096 95.2066 69.3888 93.9394 70.5536C89.549 74.5728 83.6994 77.0304 77.2866 77.0304H77.1842C64.1538 76.9792 53.5042 66.8032 52.685 53.9648C52.685 53.888 52.6722 53.8112 52.6722 53.7472C52.6466 53.2992 52.6338 52.8384 52.6338 52.3904C52.6338 50.1888 52.9154 48.064 53.4658 46.0416C54.093 43.6864 55.0658 41.4592 56.3202 39.4368C56.9474 38.4128 57.6514 37.44 58.4322 36.5312C59.085 35.7632 59.7762 35.0336 60.5186 34.3424C62.4258 32.5632 64.6146 31.0912 67.0082 29.9904C67.3666 29.824 67.725 29.6704 68.0834 29.5296C70.925 28.3776 74.0354 27.7504 77.2994 27.7504C78.2082 27.7504 79.117 27.8016 80.0002 27.904C80.333 27.9424 80.6658 27.9808 80.9986 28.032C85.197 28.6592 89.0626 30.3616 92.2882 32.832C92.6082 33.088 92.941 33.344 93.2482 33.6128C95.7954 35.776 97.8946 38.4512 99.405 41.472C99.6738 42.0224 99.9298 42.5856 100.16 43.1616C101.299 45.9776 101.939 49.1008 101.939 52.3648Z" fill="white"/>
<path d="M99.1617 54.1056C98.5601 65.664 88.9985 74.8672 77.2865 74.8672C65.5745 74.8672 56.0129 65.6768 55.4241 54.1056C58.7649 62.9376 67.2897 69.2224 77.2865 69.2224C87.2961 69.2224 95.8209 62.9376 99.1617 54.1056Z" fill="#849BA8"/>
<path d="M72.9728 39.7568C72.6144 41.536 72 43.8656 71.8336 47.7184C71.104 48.0128 68.1344 49.1136 65.0752 50.8032C65.9584 51.2 71.8464 53.4912 71.9872 53.5424C72.0256 54.3104 72.8192 60.6848 73.2416 61.8496C74.0608 60.4672 76.2752 56.9216 77.5168 55.1424C78.1824 55.3216 80.768 56.2816 86.08 57.088C84.8384 55.7824 80.7168 50.8928 80.4864 50.624C81.2416 49.6128 85.76 43.4944 85.76 43.4944C85.76 43.4944 80.6912 44.6464 77.0176 45.9136C75.3152 43.6224 72.9728 39.7568 72.9728 39.7568Z" fill="#1E1F1E"/>
<path d="M82.9312 32.32C79.8464 32.2688 78.1312 32.4096 75.4304 32.8704C75.0592 33.3312 73.728 35.072 72.896 38.9376C72.3712 38.4256 70.4768 36.288 69.2224 33.984C68.7488 34.1248 66.432 34.9824 63.7312 36.0448C64.2176 35.3408 64.9856 34.2144 68.3648 31.9488C68.1728 31.616 67.4176 30.5664 66.9952 29.9648C67.3536 29.7984 67.712 29.6448 68.0704 29.504C69.5296 29.4656 71.7952 29.4144 73.0624 29.5296C74.3552 28.9664 76.096 28.416 79.9872 27.8656C80.32 27.904 80.6528 27.9424 80.9856 27.9936C80.4608 28.2624 79.4752 28.8768 77.824 30.3104C80.2304 31.0656 81.728 31.552 82.9312 32.32Z" fill="#1E1F1E"/>
<path d="M62.2978 36.9536C60.8514 38.0544 58.9186 39.6928 58.1122 40.5248C57.869 42.3552 57.6514 43.1744 57.4466 45.9392C57.0114 45.4528 56.269 44.3776 55.757 43.1488C55.0146 43.9808 54.1954 45.0688 53.4658 46.016C54.093 43.6608 55.0658 41.4336 56.3202 39.4112C56.9474 38.3872 57.6514 37.4144 58.4322 36.5056C59.085 35.7376 59.7762 35.008 60.5186 34.3168C59.917 35.584 59.5074 36.3904 59.469 37.2224C60.7234 37.0432 61.2354 36.9792 62.2978 36.9536Z" fill="#1E1F1E"/>
<path d="M58.9312 56C59.9168 59.5456 60.6336 60.736 61.0432 61.6704C60.3648 61.312 57.6512 59.4816 56.9856 59.0208C56.5888 59.5072 55.9872 60.8896 55.2064 62.72C54.016 58.944 54.4512 56.8192 54.4384 56.4224C54.1312 56.0384 53.2864 54.7456 52.6976 53.9648C52.6976 53.888 52.6848 53.8112 52.6848 53.7472C53.4016 53.1584 54.0032 52.8256 55.1168 52.3904C55.6416 50.4192 56.9728 47.7312 57.4464 47.0784C57.4336 47.4624 57.7664 50.7648 57.856 51.6608C61.12 51.0592 63.2064 51.0592 63.744 51.0592C62.0416 52.672 59.2896 55.5776 58.9312 56Z" fill="#1E1F1E"/>
<path d="M61.9394 62.7072C62.7586 63.3984 63.4114 64.3584 67.3282 66.9824C68.1602 66.5088 70.8226 64.8448 72.9346 62.8224C72.8322 63.5392 72.333 66.7648 72.0002 69.8112C72.397 70.0288 76.4802 72.256 77.0818 72.4736C75.9426 72.5888 73.357 72.6272 72.013 72.64C72.077 73.8304 72.2434 75.3024 72.4866 76.0192C71.5138 75.712 69.0818 74.5984 66.9698 72C66.189 71.9232 61.9778 71.3344 59.8914 69.1968C60.7874 69.184 62.6818 69.184 64.4738 68.3008C64.141 67.6992 63.117 65.8944 61.9394 62.7072Z" fill="#1E1F1E"/>
<path d="M93.9393 70.5408C89.5489 74.56 83.6993 77.0176 77.2865 77.0176H77.1841C80.1921 76.0192 80.6785 75.4944 81.2929 75.0592C80.8705 74.8288 79.2193 73.7664 78.1569 72.7296C78.6561 72.8192 83.3281 73.024 84.1857 73.024C86.7969 70.336 86.7969 70.1568 88.4609 68.1728C88.6401 69.7728 88.4993 71.2832 88.3457 72.4096C89.8817 72.2176 92.6593 71.0912 93.9393 70.5408Z" fill="#1E1F1E"/>
<path d="M101.824 54.72C101.799 55.0144 101.76 55.3088 101.722 55.616C99.981 59.5072 99.149 60.6208 98.4962 61.4016C98.4962 63.4624 98.1762 64.0896 97.6386 66.2656C97.549 66.4064 97.4466 66.5344 97.357 66.6752C96.7298 65.6384 95.7442 64.8576 95.245 64.5376C91.9682 66.5216 91.0594 66.8288 88.9858 67.3664C89.4466 66.8544 91.213 64.0896 92.1474 62.4896C90.2402 60.9536 89.0626 59.8272 87.3474 57.8688C87.3474 57.8688 93.7602 57.92 94.6178 57.8688C96.4994 54.4384 97.4338 51.8528 97.997 50.4064C98.2914 51.3408 98.637 55.1296 98.6882 56.7424C100.749 55.8848 101.824 54.72 101.824 54.72Z" fill="#1E1F1E"/>
<path d="M97.2546 42.2912C98.061 46.016 97.8306 47.7312 97.805 48.576C95.885 45.12 93.8754 42.3296 93.645 42.0224C90.3426 42.1376 88.845 42.496 86.9122 42.7776C87.8594 42.0608 90.1762 38.4128 90.3938 38.0032C86.9506 34.496 85.4274 33.4208 84.5698 32.7424C88.717 33.28 90.3682 34.304 91.8914 35.1104C92.0706 34.496 92.2114 33.472 92.2754 32.7808C92.5954 33.0368 92.9282 33.2928 93.2354 33.5616C94.6562 35.6736 95.245 36.9024 95.4242 37.3504C96.4098 38.0544 98.253 39.936 99.3922 41.4336C99.661 41.984 99.917 42.5472 100.147 43.1232C99.2898 42.6624 97.6258 42.2912 97.2546 42.2912Z" fill="#1E1F1E"/>
<path d="M73.6642 43.6352C73.6642 43.6352 73.2418 45.8368 73.0754 48.6528C71.0914 49.6128 70.1826 49.9456 69.8882 50.0992C71.501 50.5216 73.4082 51.0464 78.349 50.6624C79.053 49.7024 81.8178 45.9904 81.8178 45.9904L76.1602 47.552L73.6642 43.6352Z" fill="#414245"/>
<path d="M76.9154 29.4656C75.853 29.5424 73.7666 29.9264 72.525 30.528C71.7442 30.5152 70.157 30.5152 69.005 30.656C69.325 31.1168 69.8242 31.7824 69.8242 31.7824C69.8242 31.7824 68.7362 32.5504 67.4434 33.984C68.3138 33.664 70.4258 32.9856 70.4258 32.9856C70.4258 32.9856 70.9634 33.9584 72.333 35.6736C72.7298 34.176 73.0626 33.3184 73.8306 32.3584C74.5218 32.1664 75.0338 31.9232 77.581 31.9488C76.9154 31.6544 76.1986 31.2192 75.0978 30.9376C75.6994 30.3744 76.5698 29.6576 76.9154 29.4656Z" fill="#414245"/>
<path d="M59.4049 38.3232L57.2929 40.1664L57.1265 40.8192L56.3201 39.4112C56.9473 38.3872 57.6513 37.4144 58.4321 36.5056C58.2273 37.1456 57.9585 38.0672 57.9457 38.4896C58.8673 38.3488 59.4049 38.3232 59.4049 38.3232Z" fill="#414245"/>
<path d="M92.9153 34.944L92.8257 36.3904C92.8257 36.3904 91.3409 35.6096 88.8577 35.1872C90.4705 36.6464 91.5969 37.632 91.9297 38.1056C91.1745 39.2064 90.0353 40.8448 90.0353 40.8448C90.0353 40.8448 91.9809 40.3072 93.7729 40.32C93.9905 40.4224 94.1057 40.5248 94.1057 40.5248C94.1057 40.5248 95.4241 38.5408 95.5521 38.3616C95.2705 38.1824 94.9121 37.8496 94.7585 37.7472C94.4129 37.0048 93.8881 35.9808 92.9153 34.944Z" fill="#414245"/>
<path d="M106.598 52.5952C106.598 52.9408 106.586 53.2992 106.573 53.6448C106.496 53.3504 106.432 53.056 106.355 52.7744L106.598 52.5952Z" fill="black"/>
<path d="M106.598 52.5952C106.598 52.9408 106.586 53.2992 106.573 53.6448C106.496 53.3504 106.432 53.056 106.355 52.7744L106.598 52.5952Z" fill="black"/>
<path d="M48.845 59.456L24.8706 83.4176C24.205 82.0864 23.6034 80.704 23.0786 79.296L48.0514 54.3232C48.1666 56.0896 48.4354 57.792 48.845 59.456Z" fill="#C5143A"/>
<path d="M52.3649 67.7888L29.4401 90.7008C28.5697 89.5872 27.7633 88.4224 27.0081 87.2192L50.3425 63.8848C50.9185 65.2544 51.5969 66.5472 52.3649 67.7888Z" fill="#C5143A"/>
<path d="M57.7409 74.1888L35.1489 96.7808C34.0993 95.8592 33.1009 94.8864 32.1409 93.8752L54.8225 71.1936C55.7313 72.256 56.7041 73.2672 57.7409 74.1888Z" fill="#C5143A"/>
<path d="M64.845 78.912L42.0098 101.747C40.781 101.03 39.5778 100.25 38.4258 99.4176L61.0562 76.7872C62.2722 77.5808 63.5394 78.2848 64.845 78.912Z" fill="#C5143A"/>
<path d="M107.789 63.9616C107.789 88.1152 88.205 107.699 64.0514 107.699C57.5746 107.699 51.4306 106.291 45.9138 103.77L69.1586 80.5248C71.7442 81.2672 74.4706 81.6768 77.2994 81.6768C93.0562 81.6768 105.907 69.248 106.573 53.6576C107.367 56.96 107.789 60.4032 107.789 63.9616Z" fill="#C5143A"/>
<path d="M51.9041 109.338L48.1921 110.349L48.4225 112.794L50.5217 112.538L48.9985 118.246L52.1089 119.078L54.5281 110.029L51.9041 109.338Z" fill="white"/>
<path d="M61.9521 111.962C61.4145 111.104 60.5057 110.618 59.2001 110.49C58.0993 110.374 57.2033 110.554 56.5249 111.027C55.8465 111.488 55.4369 112.269 55.3345 113.357C55.2321 114.445 55.3985 115.277 55.8593 115.84C56.3201 116.403 57.0881 116.736 58.1633 116.851C58.5217 116.89 58.8673 116.851 59.2129 116.762L59.3665 116.723C59.3025 117.043 59.1873 117.274 59.0081 117.414C58.8289 117.555 58.5601 117.606 58.1889 117.581C57.3953 117.504 56.4865 117.325 55.4369 117.069L54.9761 119.398L55.4881 119.578C56.5121 119.923 57.4337 120.128 58.2529 120.205C58.7265 120.256 59.2001 120.218 59.6609 120.115C60.1345 120.013 60.5697 119.795 60.9793 119.475C61.8113 118.822 62.3233 117.542 62.5153 115.648C62.6689 114.035 62.4897 112.819 61.9521 111.962ZM59.6097 114.291C59.3537 114.381 59.0849 114.406 58.7905 114.381C58.3681 114.342 58.1761 114.086 58.2273 113.626C58.2785 113.165 58.5217 112.96 58.9569 113.011C59.2641 113.037 59.4689 113.152 59.5457 113.344C59.6225 113.536 59.6481 113.856 59.6097 114.291Z" fill="white"/>
<path d="M70.4897 117.453L67.5841 117.619L68.4929 116.902C69.2353 116.314 69.7345 115.776 69.9905 115.264C70.2465 114.752 70.3489 114.074 70.2977 113.203C70.2465 112.333 69.9009 111.68 69.2609 111.232C68.6209 110.784 67.7633 110.592 66.6881 110.656C65.6129 110.72 64.6017 110.95 63.6289 111.36L63.9105 113.779L64.2049 113.702C64.7681 113.562 65.3825 113.472 66.0737 113.434C66.4321 113.408 66.6881 113.434 66.8289 113.485C66.9697 113.549 67.0593 113.702 67.0721 113.946C67.0849 114.048 67.0721 114.15 67.0593 114.253C67.0465 114.355 66.9697 114.509 66.8545 114.714C66.7393 114.918 66.5985 115.11 66.4449 115.277L65.8817 115.904C65.6513 116.16 65.4081 116.429 65.1649 116.685L64.0001 117.952L64.1409 120.397L70.6433 120.013L70.4897 117.453Z" fill="white"/>
<path d="M79.0146 113.536C78.6306 111.846 78.093 110.694 77.4018 110.08C76.7106 109.466 75.6994 109.299 74.3554 109.606C73.0114 109.914 72.1538 110.49 71.7826 111.36C71.3986 112.23 71.3986 113.498 71.7826 115.174C72.1538 116.851 72.6914 118.003 73.3954 118.63C74.0994 119.258 75.1234 119.411 76.4674 119.117C77.8114 118.81 78.6818 118.234 79.0402 117.363C79.4114 116.493 79.3986 115.213 79.0146 113.536ZM75.8914 116.506C75.6994 116.544 75.5458 116.442 75.4178 116.198C75.3026 115.942 75.1362 115.379 74.9314 114.47C74.7266 113.574 74.6242 112.973 74.637 112.678C74.637 112.512 74.6626 112.397 74.7138 112.346C74.765 112.282 74.829 112.243 74.9314 112.23C75.0338 112.205 75.1106 112.218 75.1874 112.243C75.2514 112.282 75.3282 112.371 75.3922 112.512C75.469 112.666 75.533 112.87 75.6098 113.126C75.6866 113.395 75.8018 113.869 75.9554 114.56C76.109 115.251 76.1858 115.738 76.1858 116.019C76.173 116.301 76.0834 116.454 75.8914 116.506Z" fill="white"/>
<path d="M18.6499 75.8912L9.86908 77.5808L8.65308 71.2448L11.1363 70.7712L11.7763 74.0608L13.1971 73.792L12.6979 71.296L15.1811 70.8224L15.6675 73.3312L18.0739 72.8704L18.6499 75.8912Z" fill="white"/>
<path d="M14.285 66.1376L17.2546 66.048L17.357 69.1456L8.42264 69.4272L8.32024 66.3296L11.4818 66.2272L11.469 65.6896L8.28184 64.7936L8.17944 61.7216L12.5442 63.0144L17.1138 61.312L17.2162 64.4224L14.2722 65.6L14.285 66.1376Z" fill="white"/>
<path d="M8.58902 53.9904L6.54102 54.9632L6.97622 52.7488L7.82102 52.7232L7.04022 52.3904L7.47542 50.176L8.96022 51.9936L8.58902 53.9904ZM11.1362 56.9984L8.66582 56.512L10.0482 49.5744L12.5186 50.0608L15.5522 53.6192L15.7698 53.6576L16.333 50.816L18.8034 51.3024L17.421 58.24L15.0658 57.7664L11.9298 54.1184L11.7122 54.08L11.1362 56.9984Z" fill="white"/>
<path d="M18.9185 50.9952L10.5217 47.936L12.8129 41.6384L15.1297 42.4832L13.9009 45.8752L14.6177 46.1312L15.5777 43.4944L17.8689 44.3264L16.9089 46.9632L17.6641 47.232L18.8929 43.84L21.2097 44.6848L18.9185 50.9952Z" fill="white"/>
<path d="M24.3587 38.8992L21.4915 44.1728L13.6323 39.9104L15.1043 37.184L20.7491 40.2432L22.1315 37.6832L24.3587 38.8992Z" fill="white"/>
<path d="M24.5635 38.5792L17.3955 33.2288L21.4019 27.8656L23.3859 29.3376L21.2355 32.2304L21.8499 32.6912L23.5267 30.4512L25.4851 31.9104L23.8083 34.1504L24.4483 34.624L26.5987 31.7312L28.5827 33.2032L24.5635 38.5792Z" fill="white"/>
<path d="M24.4738 28.16L22.7202 26.3424L27.8018 21.4272L29.5554 23.2448L30.029 27.8912L30.1826 28.0576L32.269 26.048L34.0226 27.8656L28.941 32.768L27.2642 31.04L26.7522 26.2528L26.5986 26.0864L24.4738 28.16Z" fill="white"/>
<path d="M34.6115 27.5072L29.2227 20.3776L31.6931 18.5088L37.0819 25.6384L34.6115 27.5072Z" fill="white"/>
<path d="M37.453 25.1648L34.8162 16.3968L38.8994 14.1056L45.0178 20.928L42.2914 22.4512L41.5746 21.6832L39.7954 22.6816L40.1154 23.68L37.453 25.1648ZM37.9138 17.4464L38.989 20.416L40.141 19.776L38.2082 17.28L37.9138 17.4464Z" fill="white"/>
<path d="M48.141 17.4592L47.4242 17.7024L48.1794 19.8912L45.2482 20.9024L42.3298 12.4544L45.8882 11.2256C47.1938 10.7776 48.205 10.6752 48.909 10.9056C49.6258 11.1488 50.1762 11.8528 50.5858 13.0176C50.9954 14.1952 50.9698 15.1424 50.5218 15.8592L52.3522 18.4448L49.3698 19.4688L48.141 17.4592ZM47.3346 15.1552C47.7442 15.0144 47.8594 14.6688 47.6674 14.1184C47.4754 13.568 47.1554 13.376 46.6946 13.5296L46.0546 13.7472L46.6306 15.3984L47.3346 15.1552Z" fill="white"/>
<path d="M52.6723 18.3296L51.3027 9.49762L54.3107 9.03682L56.8579 12.0704L57.0371 12.0448L56.5123 8.69122L59.5715 8.21762L60.9411 17.0496L57.9203 17.5232L55.3603 14.2336L55.1683 14.2592L55.7315 17.856L52.6723 18.3296Z" fill="white"/>
<path d="M61.6577 17.0752L61.8241 8.12802L68.5185 8.25602L68.4801 10.7264L64.8833 10.6624L64.8705 11.4176L67.6737 11.4688L67.6353 13.9136L64.8321 13.8624L64.8193 14.6688L68.4161 14.7328L68.3649 17.2032L61.6577 17.0752Z" fill="white"/>
<path d="M75.4946 16.5888L75.0978 16.4864L74.6498 18.3296L71.6418 17.6L73.7666 8.90881L77.1714 9.74081C78.541 10.0736 79.4882 10.56 80.0002 11.1872C80.5122 11.8144 80.6018 12.7872 80.2818 14.0928C79.9618 15.3984 79.4242 16.2304 78.669 16.576C77.9266 16.9216 76.8642 16.9216 75.4946 16.5888ZM75.6738 14.1184L75.9426 14.1824C76.3138 14.272 76.5954 14.2592 76.8002 14.1312C77.005 14.0032 77.1458 13.7472 77.2482 13.3504C77.3506 12.9536 77.3378 12.672 77.2226 12.4928C77.1074 12.3136 76.8514 12.1856 76.4674 12.0832L76.1986 12.0192L75.6738 14.1184Z" fill="white"/>
<path d="M88.5634 18.6752C87.9106 20.16 87.1298 21.1072 86.2082 21.5168C85.2994 21.9136 84.1602 21.824 82.8034 21.2224C81.4466 20.6208 80.6018 19.8528 80.2818 18.9056C79.9618 17.9584 80.1154 16.7424 80.7682 15.2448C81.421 13.76 82.2018 12.8128 83.1234 12.416C84.0322 12.0192 85.1714 12.1088 86.541 12.7104C87.8978 13.312 88.7426 14.08 89.0626 15.0272C89.3826 15.9744 89.2162 17.1904 88.5634 18.6752ZM83.6226 16.512C83.3154 17.2032 83.1618 17.728 83.1618 18.0992C83.1618 18.4576 83.3794 18.7392 83.8018 18.9312C84.2242 19.1232 84.5698 19.0848 84.8386 18.8416C85.1074 18.5984 85.389 18.1248 85.6962 17.4208C86.0034 16.7168 86.157 16.192 86.1698 15.8336C86.1698 15.4752 85.965 15.2064 85.5298 15.0144C85.0946 14.8224 84.749 14.848 84.4802 15.104C84.2242 15.3472 83.9298 15.8208 83.6226 16.512Z" fill="white"/>
<path d="M90.2019 25.1008L86.9507 22.912L91.9555 15.5008L95.0787 17.6128C96.3587 18.4704 97.0755 19.3792 97.2547 20.3392C97.4211 21.2992 97.0883 22.4 96.2307 23.6672C95.3731 24.9344 94.4643 25.7024 93.5043 25.9584C92.5443 26.2272 91.4435 25.9456 90.2019 25.1008ZM93.5683 22.0416C94.0163 21.376 94.2467 20.8896 94.2595 20.5824C94.2723 20.2752 94.0419 19.9552 93.5683 19.6352L93.1203 19.328L90.9315 22.5536L91.3795 22.8608C91.7635 23.1168 92.1091 23.2192 92.4291 23.1424C92.7363 23.0784 93.1203 22.7072 93.5683 22.0416Z" fill="white"/>
<path d="M100.275 21.4016L103.181 24.2176C104.743 25.7408 105.011 27.0208 103.987 28.0832C103.591 28.48 103.258 28.7488 102.951 28.8896C102.656 29.0176 102.272 29.056 101.824 28.992C102.003 29.4272 102.067 29.7984 101.991 30.1184C101.914 30.4256 101.671 30.8096 101.223 31.2576C100.045 32.4736 98.6369 32.2816 96.9857 30.6816L94.0417 27.8272L100.275 21.4016ZM99.2513 27.9296L98.7393 27.4304L97.7153 28.48L98.2273 28.9792C98.4449 29.1968 98.6369 29.2992 98.7905 29.312C98.9441 29.312 99.1105 29.2096 99.3025 29.0176C99.4945 28.8128 99.5969 28.6336 99.5841 28.48C99.5713 28.3136 99.4562 28.1344 99.2513 27.9296ZM101.568 25.4976L101.082 25.024L100.083 26.048L100.583 26.5344C100.775 26.7264 100.954 26.8032 101.107 26.8032C101.261 26.7904 101.427 26.7008 101.607 26.5216C101.786 26.3424 101.863 26.176 101.863 26.0096C101.85 25.8432 101.747 25.6768 101.568 25.4976Z" fill="white"/>
<path d="M103.731 34.9696L103.283 34.3552L101.427 35.7248L99.5842 33.2416L106.791 27.9424L109.018 30.976C109.837 32.0896 110.234 33.024 110.221 33.7664C110.208 34.5216 109.696 35.264 108.698 35.9936C107.699 36.7232 106.791 36.992 105.971 36.7744L104.039 39.2832L102.17 36.7488L103.731 34.9696ZM105.69 33.5104C105.946 33.856 106.317 33.8688 106.778 33.5232C107.251 33.1776 107.341 32.8064 107.047 32.4096L106.637 31.8592L105.229 32.896L105.69 33.5104Z" fill="white"/>
<path d="M104.346 39.8592L112.32 35.8016L115.354 41.7792L113.152 42.8928L111.514 39.68L110.835 40.0256L112.103 42.5216L109.927 43.6224L108.659 41.1264L107.943 41.4848L109.581 44.6976L107.379 45.8112L104.346 39.8592Z" fill="white"/>
<path d="M113.754 44.4928L116.16 43.7376L118.298 50.4832L115.891 51.2384L111.514 49.5872L111.296 49.6512L112.167 52.416L109.76 53.1712L107.623 46.4256L109.914 45.696L114.419 47.3728L114.637 47.3088L113.754 44.4928Z" fill="white"/>
<path d="M115.456 61.2736C113.844 61.4912 112.628 61.312 111.808 60.736C110.989 60.16 110.477 59.1488 110.285 57.6768C110.093 56.2048 110.311 55.0912 110.951 54.3104C111.591 53.5424 112.717 53.0432 114.33 52.8256C115.943 52.608 117.159 52.7872 117.965 53.3632C118.784 53.9392 119.296 54.9632 119.488 56.4352C119.68 57.9072 119.463 59.0336 118.836 59.8016C118.196 60.5568 117.069 61.056 115.456 61.2736ZM114.74 55.9232C113.984 56.0256 113.46 56.1664 113.152 56.3584C112.845 56.5504 112.717 56.8704 112.781 57.344C112.845 57.8048 113.05 58.0864 113.396 58.1888C113.741 58.2912 114.292 58.2784 115.06 58.176C115.828 58.0736 116.352 57.9328 116.66 57.7536C116.967 57.5744 117.082 57.2544 117.018 56.7808C116.954 56.3072 116.749 56.0256 116.404 55.9232C116.032 55.8208 115.482 55.8208 114.74 55.9232Z" fill="white"/>
<path d="M119.693 69.5424L110.797 67.5456L110.925 62.9888L119.911 61.4144L119.821 64.6912L113.984 65.2288L113.972 65.472L119.77 66.2528L119.693 69.5424Z" fill="white"/>
<path d="M110.861 68.5824L119.271 72.2048L118.387 76.8L109.223 77.0944L109.811 74.0224L110.874 73.9712L111.258 71.9616L110.285 71.552L110.861 68.5824ZM116.467 73.9072L113.498 72.8192L113.255 74.112L116.416 74.2272L116.467 73.9072ZM121.395 73.7664L120.781 76.9408L119.271 75.1744L119.719 72.8704L121.395 73.7664Z" fill="white"/>
</svg>
