<svg width="36" height="36" viewBox="0 0 36 36" fill="none" xmlns="http://www.w3.org/2000/svg">
<g clip-path="url(#clip0_2507_579)">
<path fill-rule="evenodd" clip-rule="evenodd" d="M4.39523 0L31.6048 0C33.1331 0 33.6873 0.15913 34.246 0.457942C34.8048 0.756754 35.2432 1.19525 35.5421 1.75398C35.8409 2.31271 36 2.86691 36 4.39523V31.6048C36 33.1331 35.8409 33.6873 35.5421 34.246C35.2432 34.8048 34.8048 35.2432 34.246 35.5421C33.6873 35.8409 33.1331 36 31.6048 36H4.39523C2.86691 36 2.31271 35.8409 1.75398 35.5421C1.19525 35.2432 0.756754 34.8048 0.457942 34.246C0.15913 33.6873 0 33.1331 0 31.6048L0 4.39523C0 2.86691 0.15913 2.31271 0.457942 1.75398C0.756754 1.19525 1.19525 0.756754 1.75398 0.457942C2.31271 0.15913 2.86691 0 4.39523 0Z" fill="#000100"/>
<mask id="mask0_2507_579" style="mask-type:luminance" maskUnits="userSpaceOnUse" x="19" y="25" width="5" height="3">
<path d="M20.2779 25.5533C19.7618 25.5533 19.3438 25.9711 19.3438 26.4862C19.3438 27.0017 19.7618 27.4195 20.2779 27.4195H23.0336V25.5533H20.2779Z" fill="white"/>
</mask>
<g mask="url(#mask0_2507_579)">
<path fill-rule="evenodd" clip-rule="evenodd" d="M20.2779 25.5533C19.7618 25.5533 19.3438 25.9711 19.3438 26.4862C19.3438 27.0017 19.7618 27.4195 20.2779 27.4195H23.0336V25.5533H20.2779Z" fill="url(#paint0_linear_2507_579)"/>
</g>
<path fill-rule="evenodd" clip-rule="evenodd" d="M21.8084 24.2437C21.5227 23.978 21.2353 23.8005 20.9059 23.6911C20.5786 23.5794 20.1972 23.5442 19.7907 23.5562C18.9628 23.5903 18.0552 24.0373 17.4 24.6816C17.0666 25.0022 16.7979 25.3789 16.6074 25.7754C16.4182 26.1733 16.323 26.5938 16.3194 27.0106C16.3201 27.2683 16.3582 27.5252 16.4323 27.7782C16.5745 28.2615 16.8198 28.648 17.1622 28.9045C17.4996 29.1673 17.9525 29.3039 18.4425 29.3174C18.8165 29.324 19.2066 29.2578 19.5769 29.1306C19.9463 29.0001 20.2951 28.8084 20.5889 28.5703C20.9739 28.2517 21.326 27.9154 21.584 27.564C21.7132 27.3881 21.8188 27.2111 21.9019 27.0271C21.9847 26.8422 22.0437 26.6483 22.0982 26.4145L22.1259 26.2912L22.1286 26.279C22.2249 25.8469 22.6085 25.5529 23.0342 25.5529C23.1011 25.5529 23.1689 25.56 23.2367 25.5753C23.7371 25.6866 24.0526 26.1819 23.9413 26.682L23.9302 26.7317L23.9228 26.7648C23.913 26.8089 23.9081 26.831 23.9081 26.831C23.8386 27.1317 23.7404 27.4668 23.5978 27.7833C23.4554 28.1004 23.2763 28.3966 23.08 28.6632C22.6846 29.1975 22.2293 29.62 21.7678 30.0035C20.8094 30.7726 19.6389 31.187 18.402 31.1717C17.9962 31.1616 17.583 31.0993 17.1792 30.9711C16.7755 30.8451 16.3834 30.6442 16.0366 30.3798C15.6894 30.1162 15.3906 29.7886 15.1603 29.4307C14.9302 29.0724 14.7653 28.6883 14.6513 28.3046C14.5285 27.8874 14.4628 27.4503 14.4624 27.0129C14.4645 26.3036 14.6328 25.6032 14.9275 24.9848C15.2233 24.3662 15.6251 23.8162 16.1024 23.3547C16.5789 22.8922 17.1229 22.5049 17.7285 22.2171C18.3326 21.9302 18.9993 21.7323 19.718 21.7028C19.7942 21.7004 19.8676 21.6992 19.9418 21.6992C20.443 21.6992 20.9705 21.7559 21.4924 21.9311C22.0913 22.1249 22.6457 22.4824 23.07 22.8825C23.07 22.8825 23.0967 22.9078 23.1503 22.9585L23.1686 22.9757L23.1911 22.9972C23.1997 23.0054 23.2083 23.014 23.217 23.0225C23.5638 23.3772 23.5704 23.9453 23.2259 24.308C22.8731 24.6797 22.2855 24.6952 21.9134 24.3427L21.8902 24.3208C21.8358 24.2694 21.8084 24.2437 21.8084 24.2437Z" fill="url(#paint1_linear_2507_579)"/>
<path fill-rule="evenodd" clip-rule="evenodd" d="M6.0318 29.196L4.85059 31.0653H8.90147C9.41826 31.0653 9.83717 30.6467 9.83717 30.1306C9.83717 29.6343 9.44505 29.196 8.96003 29.196H6.0318Z" fill="url(#paint2_linear_2507_579)"/>
<path d="M28.3303 22.9513L29.0972 26.6614C29.4869 26.4517 29.9324 26.3323 30.4062 26.3323C30.5857 26.3323 30.7609 26.3508 30.931 26.3835L30.1667 22.6063L28.3303 22.9513Z" fill="url(#paint3_linear_2507_579)"/>
<path fill-rule="evenodd" clip-rule="evenodd" d="M32.2487 29.4304C32.1767 29.0781 31.9682 28.5446 31.9682 28.5446C32.1725 28.2362 32.1906 28.0312 32.1906 28.0312C32.2874 28.0904 32.3978 28.283 32.4257 28.3338C32.2553 27.8878 31.9468 27.5221 31.5598 27.2763L31.5541 27.3164C31.5541 27.3164 31.1405 27.1506 30.8078 27.1458C30.8078 27.1458 30.5657 26.9894 30.2246 26.9419C30.1455 26.948 30.066 26.9578 29.9862 26.9729C29.7433 27.0189 29.5186 27.1052 29.315 27.2209C29.2919 27.2464 29.0923 27.4715 29.0167 27.736C29.0167 27.736 28.6638 27.9405 28.3878 28.4452C28.3878 28.4452 28.363 28.3561 28.3728 28.2962C28.221 28.6705 28.1699 29.0905 28.2507 29.5167C28.2678 29.6065 28.2918 29.693 28.319 29.7778C28.3047 29.7139 28.2685 29.5002 28.3603 29.2753C28.3603 29.2753 28.592 29.4388 28.9114 29.5796C28.9114 29.5796 29.0398 30.0942 29.3278 30.4999C29.3278 30.4999 29.1823 30.7209 28.9126 30.7065C29.3787 31.137 30.025 31.3586 30.6947 31.2642C30.2339 31.0001 30.2186 30.8074 30.2186 30.8074C30.6912 30.5311 30.8998 30.2554 30.8998 30.2554C31.4545 30.3324 31.7646 30.2785 31.7646 30.2785C31.7599 30.7398 31.6171 30.9083 31.6101 30.9163C32.1306 30.5655 32.4796 30.0015 32.5557 29.3728C32.4304 29.4945 32.2487 29.4304 32.2487 29.4304Z" fill="white"/>
<mask id="mask1_2507_579" style="mask-type:luminance" maskUnits="userSpaceOnUse" x="30" y="26" width="2" height="2">
<path d="M30.2249 26.942C30.5658 26.9897 30.8079 27.1459 30.8079 27.1459C31.1406 27.1508 31.5544 27.3166 31.5544 27.3166L31.5599 27.2764C31.5226 27.2527 31.4854 27.2283 31.4467 27.207C31.4414 27.204 31.4347 27.2007 31.429 27.1976C31.3756 27.1687 31.3209 27.1419 31.2649 27.1175C31.2559 27.1135 31.2461 27.1096 31.2368 27.1056C30.9749 26.9954 30.6894 26.9353 30.3946 26.9353C30.3383 26.9353 30.2816 26.9376 30.2249 26.942Z" fill="white"/>
</mask>
<g mask="url(#mask1_2507_579)">
<path fill-rule="evenodd" clip-rule="evenodd" d="M30.2249 26.942C30.5658 26.9897 30.8079 27.1459 30.8079 27.1459C31.1406 27.1508 31.5544 27.3166 31.5544 27.3166L31.5599 27.2764C31.5226 27.2527 31.4854 27.2283 31.4467 27.207C31.4414 27.204 31.4347 27.2007 31.429 27.1976C31.3756 27.1687 31.3209 27.1419 31.2649 27.1175C31.2559 27.1135 31.2461 27.1096 31.2368 27.1056C30.9749 26.9954 30.6894 26.9353 30.3946 26.9353C30.3383 26.9353 30.2816 26.9376 30.2249 26.942Z" fill="#FF4600"/>
</g>
<mask id="mask2_2507_579" style="mask-type:luminance" maskUnits="userSpaceOnUse" x="28" y="27" width="2" height="2">
<path d="M28.3732 28.2964C28.3633 28.3563 28.388 28.4454 28.388 28.4454C28.6641 27.9404 29.0171 27.7361 29.0171 27.7361C29.0924 27.4717 29.2922 27.2465 29.3153 27.2211C28.8857 27.4653 28.5557 27.8467 28.3732 28.2964Z" fill="white"/>
</mask>
<g mask="url(#mask2_2507_579)">
<path fill-rule="evenodd" clip-rule="evenodd" d="M28.3732 28.2964C28.3633 28.3563 28.388 28.4454 28.388 28.4454C28.6641 27.9404 29.0171 27.7361 29.0171 27.7361C29.0924 27.4717 29.2922 27.2465 29.3153 27.2211C28.8857 27.4653 28.5557 27.8467 28.3732 28.2964Z" fill="#FF4600"/>
</g>
<mask id="mask3_2507_579" style="mask-type:luminance" maskUnits="userSpaceOnUse" x="28" y="29" width="2" height="2">
<path d="M28.3191 29.7778C28.3791 29.9641 28.4617 30.1383 28.5649 30.2967C28.5807 30.3202 28.5964 30.3427 28.6121 30.3646C28.622 30.3785 28.6324 30.3922 28.6427 30.406C28.6833 30.4596 28.7226 30.5079 28.7581 30.5486C28.7769 30.5699 28.7957 30.5916 28.8155 30.6122C28.8308 30.6286 28.8447 30.6431 28.8569 30.6553C28.8748 30.6731 28.8942 30.6895 28.9129 30.7065C29.1826 30.7208 29.3279 30.4999 29.3279 30.4999C29.0399 30.0942 28.9116 29.5796 28.9116 29.5796C28.5921 29.4388 28.3604 29.2753 28.3604 29.2753C28.2687 29.5 28.305 29.7138 28.3191 29.7778Z" fill="white"/>
</mask>
<g mask="url(#mask3_2507_579)">
<path fill-rule="evenodd" clip-rule="evenodd" d="M28.3191 29.7778C28.3791 29.9641 28.4617 30.1383 28.5649 30.2967C28.5807 30.3202 28.5964 30.3427 28.6121 30.3646C28.622 30.3785 28.6324 30.3922 28.6427 30.406C28.6833 30.4596 28.7226 30.5079 28.7581 30.5486C28.7769 30.5699 28.7957 30.5916 28.8155 30.6122C28.8308 30.6286 28.8447 30.6431 28.8569 30.6553C28.8748 30.6731 28.8942 30.6895 28.9129 30.7065C29.1826 30.7208 29.3279 30.4999 29.3279 30.4999C29.0399 30.0942 28.9116 29.5796 28.9116 29.5796C28.5921 29.4388 28.3604 29.2753 28.3604 29.2753C28.2687 29.5 28.305 29.7138 28.3191 29.7778Z" fill="#FF4600"/>
</g>
<mask id="mask4_2507_579" style="mask-type:luminance" maskUnits="userSpaceOnUse" x="30" y="30" width="2" height="2">
<path d="M30.2188 30.8072C30.2188 30.8072 30.234 30.9998 30.6948 31.264C30.7291 31.2592 30.7633 31.2563 30.7978 31.2498C31.0923 31.194 31.3613 31.0814 31.5963 30.9259C31.598 30.9248 31.5997 30.9238 31.6014 30.9226C31.6044 30.9205 31.6071 30.9182 31.6101 30.9161C31.6173 30.9081 31.7599 30.7395 31.7647 30.2782C31.7647 30.2782 31.4545 30.3322 30.9 30.2552C30.9 30.2552 30.6914 30.5308 30.2188 30.8072Z" fill="white"/>
</mask>
<g mask="url(#mask4_2507_579)">
<path fill-rule="evenodd" clip-rule="evenodd" d="M30.2188 30.8072C30.2188 30.8072 30.234 30.9998 30.6948 31.264C30.7291 31.2592 30.7633 31.2563 30.7978 31.2498C31.0923 31.194 31.3613 31.0814 31.5963 30.9259C31.598 30.9248 31.5997 30.9238 31.6014 30.9226C31.6044 30.9205 31.6071 30.9182 31.6101 30.9161C31.6173 30.9081 31.7599 30.7395 31.7647 30.2782C31.7647 30.2782 31.4545 30.3322 30.9 30.2552C30.9 30.2552 30.6914 30.5308 30.2188 30.8072Z" fill="#FF4600"/>
</g>
<mask id="mask5_2507_579" style="mask-type:luminance" maskUnits="userSpaceOnUse" x="31" y="28" width="2" height="2">
<path d="M31.968 28.5442C31.968 28.5442 32.1763 29.0779 32.2484 29.4303C32.2484 29.4303 32.4301 29.4943 32.5553 29.3726C32.5814 29.1559 32.5759 28.9319 32.533 28.706C32.5083 28.5764 32.471 28.4527 32.4255 28.3336C32.3975 28.2828 32.287 28.0903 32.1903 28.0311C32.1903 28.0311 32.1723 28.236 31.968 28.5442Z" fill="white"/>
</mask>
<g mask="url(#mask5_2507_579)">
<path fill-rule="evenodd" clip-rule="evenodd" d="M31.968 28.5442C31.968 28.5442 32.1763 29.0779 32.2484 29.4303C32.2484 29.4303 32.4301 29.4943 32.5553 29.3726C32.5814 29.1559 32.5759 28.9319 32.533 28.706C32.5083 28.5764 32.471 28.4527 32.4255 28.3336C32.3975 28.2828 32.287 28.0903 32.1903 28.0311C32.1903 28.0311 32.1723 28.236 31.968 28.5442Z" fill="#FF4600"/>
</g>
<mask id="mask6_2507_579" style="mask-type:luminance" maskUnits="userSpaceOnUse" x="29" y="27" width="3" height="3">
<path d="M29.5888 27.9471C29.5888 27.9471 29.4862 28.4273 29.5526 29.0089C29.5526 29.0089 29.927 29.1684 30.5894 29.3372C30.5894 29.3372 30.9209 29.0882 31.2759 28.4202C31.2759 28.4202 31.0658 27.9978 30.6454 27.6244C30.6454 27.6244 30.1744 27.6386 29.5888 27.9471Z" fill="white"/>
</mask>
<g mask="url(#mask6_2507_579)">
<path fill-rule="evenodd" clip-rule="evenodd" d="M29.5888 27.9471C29.5888 27.9471 29.4862 28.4273 29.5526 29.0089C29.5526 29.0089 29.927 29.1684 30.5894 29.3372C30.5894 29.3372 30.9209 29.0882 31.2759 28.4202C31.2759 28.4202 31.0658 27.9978 30.6454 27.6244C30.6454 27.6244 30.1744 27.6386 29.5888 27.9471Z" fill="url(#paint4_radial_2507_579)"/>
</g>
<path d="M5.76847 22.5712L3.94407 29.849C3.91871 29.9398 3.8999 30.0333 3.8999 30.132C3.8999 30.6475 4.31824 31.0653 4.83418 31.0653C5.2823 31.0653 5.64251 30.7509 5.74695 30.3294L7.58816 22.9894C7.60383 22.9216 7.61295 22.8515 7.61295 22.7789C7.61295 22.2635 7.19461 21.8458 6.67867 21.8458C6.23425 21.8458 5.86308 22.1559 5.76847 22.5712Z" fill="url(#paint5_linear_2507_579)"/>
<path fill-rule="evenodd" clip-rule="evenodd" d="M12.5448 22.5712L10.7204 29.849C10.6951 29.9398 10.6763 30.0333 10.6763 30.132C10.6763 30.6475 11.0946 31.0653 11.6106 31.0653C12.0585 31.0653 12.4187 30.7509 12.5233 30.3294L14.3646 22.9894C14.3802 22.9216 14.3893 22.8515 14.3893 22.7789C14.3893 22.2635 13.971 21.8458 13.455 21.8458C13.0106 21.8458 12.6394 22.1559 12.5448 22.5712Z" fill="url(#paint6_linear_2507_579)"/>
<path d="M28.4728 22.2598L23.283 29.6079C23.1811 29.7575 23.1216 29.9378 23.1216 30.132C23.1216 30.6475 23.5399 31.0653 24.0559 31.0653C24.3832 31.0653 24.6543 30.8999 24.8375 30.6423L29.9723 23.369C30.0976 23.1961 30.1832 23.0027 30.1832 22.7789C30.1832 22.2635 29.765 21.8458 29.2491 21.8458C28.9255 21.8458 28.6404 22.0101 28.4728 22.2598Z" fill="url(#paint7_linear_2507_579)"/>
<path fill-rule="evenodd" clip-rule="evenodd" d="M3.42847 20.1413L5.64726 20.1435L6.40115 16.6702C6.77775 14.9555 7.71075 11.8008 8.82071 11.8018C9.04812 11.8021 9.22808 11.9294 9.22765 12.3528C9.22751 12.5223 9.19417 12.7336 9.12919 13.0091L8.22783 17.0328C8.06383 17.7739 7.9326 18.4937 7.93217 18.9177C7.93117 19.8915 8.32187 20.4212 8.8931 20.4218C10.2148 20.423 10.9831 18.7718 11.6855 17.565L11.3431 17.2472C11.1796 17.5645 10.6404 18.6231 10.2976 18.6228C10.1833 18.6227 10.1344 18.5379 10.1347 18.3048C10.1349 18.1569 10.1678 17.9238 10.2175 17.67L11.2494 13.1389C11.3144 12.8842 11.4292 12.2066 11.4296 11.8681C11.4306 10.8301 10.9097 10.003 10.0779 10.0021C8.87101 10.001 7.51582 11.4831 6.59921 13.9598L6.56715 13.9173L7.4517 10.2327L7.2887 9.99942C6.47211 10.4436 5.00451 10.5904 4.15572 10.5896L4.07407 11.1618C4.75914 11.1625 5.01975 11.2051 5.01918 11.6708C5.01904 11.9039 4.97002 12.4326 4.88809 12.8146L3.42847 20.1413ZM16.6259 10.2842L16.4629 10.0085C15.6469 10.4528 14.1787 10.5997 13.1189 10.5985L13.0367 11.1708C13.7543 11.2345 13.9991 11.2347 13.9986 11.658C13.9985 11.8705 13.9327 12.4215 13.8344 12.8236L12.8345 17.3335C12.6869 18.0328 12.6054 18.5831 12.6048 19.0283C12.6038 20.0233 12.9621 20.4257 13.5661 20.4263C14.8864 20.4277 15.7368 18.8618 16.3743 17.5697L16.0317 17.2944C15.7864 17.7396 15.3612 18.6278 14.9705 18.6274C14.8562 18.6272 14.8074 18.5424 14.8075 18.3735C14.8077 18.2887 14.824 18.2044 14.8399 18.1197L16.6259 10.2842ZM14.8799 7.19108C14.879 8.01107 15.3779 8.67836 16.0085 8.67907C16.6396 8.67964 17.1544 8.01334 17.1553 7.19335C17.1561 6.37394 16.6426 5.725 16.0115 5.72443C15.3809 5.72372 14.8807 6.37166 14.8799 7.19108ZM16.9374 20.1548L19.1399 20.1571L19.9914 16.2821L20.7103 15.6682C21.2772 19.4815 21.7323 20.4346 22.9396 20.4358C24.2613 20.4371 24.7842 19.273 25.21 17.8546L24.8669 17.6211C24.7043 18.0661 24.5231 18.637 24.0841 18.6366C23.5943 18.636 23.301 18.2548 22.6361 13.828L24.5142 11.86C25.0534 11.3306 25.5594 10.8654 25.9352 10.8658L25.9358 10.2936L22.6723 10.2903L22.6234 10.8625C23.031 10.8628 23.4393 11.0959 23.4389 11.4991C23.4385 11.88 23.1109 12.515 22.0658 13.4883L20.2532 15.2656L20.2206 15.2232L22.4831 4.84653L22.3033 4.57144C21.3402 5.10026 20.0359 5.14082 19.0564 5.20344L18.9748 5.77552C19.7409 5.79701 19.8709 5.88197 19.8705 6.26393C19.8703 6.47483 19.8548 6.77155 19.7066 7.42831L16.9374 20.1548ZM27.8719 8.71934L28.6007 9.02773L31.563 8.2981C31.8885 8.23535 32.2069 7.99057 32.3386 7.46687C32.4496 7.02415 32.2774 6.55012 31.8278 6.35942C31.5488 6.2423 31.1307 6.33267 30.792 6.65727L27.8719 8.71934ZM32.5552 11.889C32.5564 10.6391 31.8062 10.0238 30.9264 10.0229C28.2837 10.0202 25.8006 13.5342 25.7972 16.9231C25.7952 18.9777 26.6414 20.4393 28.3058 20.441C29.7906 20.4425 30.8185 19.2794 31.7666 17.9453L31.4406 17.4792C30.8365 18.241 30.0854 18.9608 29.2039 18.9599C28.1931 18.9589 27.998 18.1111 27.9986 17.5811C27.9992 17.0106 28.1469 16.1206 28.2283 15.8032C29.7136 15.4445 32.5526 14.4943 32.5552 11.889ZM30.7289 11.5268C30.7276 12.8615 29.4856 14.8303 28.327 15.0204C28.4423 14.045 29.3598 10.699 30.2891 10.6999C30.5666 10.7001 30.7295 10.9764 30.7289 11.5268Z" fill="white"/>
</g>
<defs>
<linearGradient id="paint0_linear_2507_579" x1="281.428" y1="118.866" x2="69.5585" y2="118.866" gradientUnits="userSpaceOnUse">
<stop stop-color="#FFAA00"/>
<stop offset="1" stop-color="#FF4600"/>
</linearGradient>
<linearGradient id="paint1_linear_2507_579" x1="325.2" y1="24.5222" x2="963.236" y2="497.165" gradientUnits="userSpaceOnUse">
<stop stop-color="#FFAA00"/>
<stop offset="1" stop-color="#FF4600"/>
</linearGradient>
<linearGradient id="paint2_linear_2507_579" x1="54.891" y1="130.907" x2="454.352" y2="-21.7886" gradientUnits="userSpaceOnUse">
<stop stop-color="#FFAA00"/>
<stop offset="1" stop-color="#FF4600"/>
</linearGradient>
<linearGradient id="paint3_linear_2507_579" x1="211.846" y1="-19.3154" x2="16.9111" y2="290.658" gradientUnits="userSpaceOnUse">
<stop stop-color="#FFAA00"/>
<stop offset="1" stop-color="#FF4600"/>
</linearGradient>
<radialGradient id="paint4_radial_2507_579" cx="0" cy="0" r="1" gradientUnits="userSpaceOnUse" gradientTransform="translate(-79.3739 46.2198) rotate(120.95) scale(101.771 98.9866)">
<stop stop-color="#FFAA00"/>
<stop offset="1" stop-color="#FF4600"/>
</radialGradient>
<linearGradient id="paint5_linear_2507_579" x1="219.665" y1="-73.465" x2="-76.6162" y2="676.785" gradientUnits="userSpaceOnUse">
<stop stop-color="#FFAA00"/>
<stop offset="1" stop-color="#FF4600"/>
</linearGradient>
<linearGradient id="paint6_linear_2507_579" x1="226.443" y1="-73.465" x2="-69.8365" y2="676.787" gradientUnits="userSpaceOnUse">
<stop stop-color="#FFAA00"/>
<stop offset="1" stop-color="#FF4600"/>
</linearGradient>
<linearGradient id="paint7_linear_2507_579" x1="583.348" y1="-73.4649" x2="42.7537" y2="646.302" gradientUnits="userSpaceOnUse">
<stop stop-color="#FFAA00"/>
<stop offset="1" stop-color="#FF4600"/>
</linearGradient>
<clipPath id="clip0_2507_579">
<rect width="36" height="36" fill="white"/>
</clipPath>
</defs>
</svg>
