<svg width="64" height="64" viewBox="0 0 64 64" fill="none" xmlns="http://www.w3.org/2000/svg">
<path fill-rule="evenodd" clip-rule="evenodd" d="M58.0578 28.5871C58.0578 28.5871 58.9545 29.1223 59.4725 30.0303C59.4725 30.0303 59.9947 30.9458 59.9947 31.9998C59.9947 31.9998 59.9947 33.0538 59.4725 33.9693C59.4725 33.9693 58.9503 34.8848 58.043 35.4213L22.0934 57.4061C22.0934 57.4061 21.175 57.9726 20.0884 57.9966C20.0884 57.9966 19.0019 58.0207 18.0526 57.4915C18.0526 57.4915 17.1032 56.9624 16.5522 56.0256C16.5522 56.0256 16.0012 55.0888 16 54.002V9.99981C16 9.99981 16.0012 8.91078 16.5522 7.974C16.5522 7.974 17.1032 7.03722 18.0526 6.50809C18.0526 6.50809 19.0019 5.97896 20.0884 6.00299C20.0884 6.00299 21.175 6.02702 22.1 6.59761L58.0578 28.5871ZM20 10.002L55.9716 31.9999L20.0066 53.9936L20 53.9976L20 10.002Z" fill="white"/>
</svg>
