<svg width="16" height="16" viewBox="0 0 16 16" fill="none" xmlns="http://www.w3.org/2000/svg">
<g clip-path="url(#clip0_2551_869)">
<path d="M8.76922 11.6406L13.7694 5.64036C13.9382 5.43638 14.0192 5.17386 13.9948 4.91027C13.9703 4.64668 13.8424 4.40352 13.6391 4.23402C13.4358 4.06453 13.1735 3.98252 12.9099 4.00596C12.6462 4.02939 12.4025 4.15636 12.2323 4.35906L8.0006 9.4374L3.76894 4.35906C3.59892 4.15558 3.35508 4.02791 3.09098 4.00409C2.82689 3.98028 2.56415 4.06226 2.36046 4.23204C2.15678 4.40182 2.02881 4.6455 2.00468 4.90957C1.98055 5.17363 2.06222 5.43647 2.23175 5.64036L7.23205 11.6406C7.32605 11.7531 7.4436 11.8436 7.57641 11.9057C7.70921 11.9678 7.85403 12 8.00064 12C8.14724 12 8.29206 11.9678 8.42487 11.9057C8.55767 11.8436 8.67522 11.7531 8.76922 11.6406Z" fill="black"/>
</g>
<defs>
<clipPath id="clip0_2551_869">
<rect width="16" height="16" fill="white" transform="translate(16) rotate(90)"/>
</clipPath>
</defs>
</svg>
