<svg width="64" height="64" viewBox="0 0 64 64" fill="none" xmlns="http://www.w3.org/2000/svg">
<rect width="64" height="64" rx="5" fill="#1E1F1E"/>
<path d="M39.3373 32L24.4686 46.8686C24.1686 47.1687 24 47.5757 24 48C24 48.4243 24.1686 48.8313 24.4686 49.1314C24.7687 49.4314 25.1757 49.6 25.6 49.6C26.0243 49.6 26.4313 49.4314 26.7314 49.1314L42.7314 33.1314C43.3562 32.5065 43.3562 31.4935 42.7314 30.8686L26.7314 14.8686C26.4313 14.5686 26.0243 14.4 25.6 14.4C25.1757 14.4 24.7687 14.5686 24.4686 14.8686C24.1686 15.1687 24 15.5757 24 16C24 16.4243 24.1686 16.8313 24.4686 17.1314L39.3373 32Z" fill="white"/>
</svg>
