<svg width="64" height="64" viewBox="0 0 64 64" fill="none" xmlns="http://www.w3.org/2000/svg">
<rect width="64" height="64" rx="5" fill="#1E1F1E"/>
<path d="M39.5306 17.132L39.5312 17.1314C39.8312 16.8313 39.9998 16.4243 39.9998 16C39.9998 15.5757 39.8312 15.1687 39.5312 14.8686L39.5303 14.8677L39.5174 14.855L39.5164 14.8541C39.2177 14.5629 38.817 14.4 38.3998 14.4C37.9755 14.4 37.5685 14.5686 37.2684 14.8686L37.2678 14.8692L21.2684 30.8686C20.9684 31.1687 20.7998 31.5757 20.7998 32C20.7998 32.4243 20.9684 32.8313 21.2684 33.1314L37.2684 49.1314C37.5685 49.4314 37.9755 49.6 38.3998 49.6C38.8242 49.6 39.2311 49.4314 39.5312 49.1314C39.8312 48.8313 39.9998 48.4243 39.9998 48C39.9998 47.5757 39.8312 47.1687 39.5312 46.8686L24.6625 32L39.5306 17.132Z" fill="white"/>
</svg>
