<svg width="32" height="32" viewBox="0 0 32 32" fill="none" xmlns="http://www.w3.org/2000/svg">
<path d="M31.5959 1.04996C31.3846 0.726261 31.1011 0.461477 30.77 0.278517C30.4389 0.0955572 30.0703 -4.21878e-05 29.696 2.59019e-05H12.5741C12.049 -0.00237943 11.5356 0.162793 11.1022 0.473531C10.6688 0.78427 10.336 1.22587 10.1481 1.73961L0.152601 28.7161C0.0174385 29.0816 -0.0306958 29.4761 0.0123876 29.8655C0.055471 30.2549 0.188447 30.6273 0.399837 30.9507C0.611226 31.2741 0.894685 31.5387 1.22561 31.7215C1.55653 31.9044 1.92497 31.9999 2.29908 32H19.4193C19.9444 32.0025 20.4578 31.8374 20.8912 31.5267C21.3246 31.2159 21.6574 30.7743 21.8453 30.2604L31.8407 3.2839C31.9762 2.91872 32.0247 2.52445 31.982 2.13522C31.9394 1.74598 31.8069 1.37347 31.5959 1.04996Z" fill="white"/>
<path d="M19.4104 30.1184H2.29947C2.2178 30.1174 2.13755 30.0959 2.06552 30.0555C1.99349 30.0152 1.93183 29.9572 1.8857 29.8866C1.83958 29.816 1.81036 29.7348 1.80055 29.6498C1.79075 29.5649 1.80062 29.4787 1.82935 29.3986L10.511 5.9633C10.9553 4.76128 11.7361 3.72814 12.7509 2.99952C13.7658 2.2709 14.9671 1.88088 16.1974 1.88068H29.6938C29.7755 1.88163 29.8557 1.90317 29.9278 1.94351C29.9998 1.98385 30.0615 2.0418 30.1076 2.11242C30.1537 2.18304 30.1829 2.26424 30.1927 2.3492C30.2026 2.43415 30.1927 2.52034 30.1639 2.60044L20.1753 29.5663C20.116 29.7286 20.0111 29.8682 19.8746 29.9668C19.738 30.0653 19.5762 30.1182 19.4104 30.1184Z" fill="#FFF100"/>
<path d="M22.8164 18.1802L17.6704 22.2629C17.9263 20.9579 18.2804 19.6761 18.7292 18.4296L14.4939 22.956L13.8662 28.015L17.2037 28.5324C17.1715 28.0886 17.1562 27.6528 17.1554 27.218C18.457 25.8197 20.1624 24.9103 22.0074 24.6308L24.3055 18.4279L22.8164 18.1802Z" fill="white"/>
<path d="M18.2773 16.8107L18.4602 16.73V16.7255C19.101 16.4079 19.6747 15.9592 20.1473 15.4057C20.62 14.8522 20.9822 14.2052 21.2124 13.5027C21.4427 12.8003 21.5364 12.0567 21.4881 11.3157C21.4398 10.5747 21.2504 9.85136 20.9311 9.18826C20.6118 8.52517 20.169 7.93574 19.6289 7.45475C19.0887 6.97376 18.4622 6.61094 17.7861 6.38764C17.11 6.16435 16.3982 6.08511 15.6924 6.1546C14.9866 6.22409 14.3013 6.44088 13.6768 6.79224L9.98185 7.40112L4.19043 23.0358L18.2035 16.8453L18.2773 16.8107Z" fill="white"/>
<path d="M14.6582 17.1702C14.6804 17.1739 14.7032 17.1692 14.7224 17.1568C14.7415 17.1445 14.7558 17.1254 14.7627 17.103C14.7695 17.0806 14.7685 17.0563 14.7598 17.0346C14.751 17.0129 14.7352 16.9952 14.715 16.9847C14.4943 16.8718 14.2804 16.7446 14.0746 16.6039C14.0602 16.5952 14.0485 16.5822 14.041 16.5666C14.0336 16.5509 14.0307 16.5333 14.0328 16.516C14.0349 16.4986 14.0418 16.4823 14.0527 16.469C14.0636 16.4558 14.078 16.4462 14.0941 16.4415L14.4803 16.3084C14.5114 16.2976 14.5401 16.2804 14.5646 16.2576C14.589 16.2348 14.6088 16.2069 14.6226 16.1758C14.6364 16.1447 14.644 16.111 14.6449 16.0767C14.6457 16.0424 14.6399 16.0083 14.6277 15.9765L14.2355 14.9576C14.1568 14.7533 14.0047 14.5895 13.812 14.5014L12.9361 14.0993C12.831 14.0486 12.7114 14.0414 12.6014 14.0793C12.4914 14.1172 12.3992 14.1972 12.3432 14.3035C12.3329 14.3278 12.3161 14.3486 12.295 14.3633C12.2738 14.3781 12.2491 14.3862 12.2237 14.3868C12.1983 14.3873 12.1732 14.3803 12.1515 14.3665C12.1298 14.3527 12.1122 14.3326 12.1009 14.3088C11.9507 13.9825 11.828 13.643 11.7342 13.2943C11.633 12.918 11.6492 12.5176 11.7806 12.1516C11.912 11.7857 12.1516 11.4733 12.4644 11.2601L13.3851 10.6326C13.4522 10.5879 13.509 10.528 13.5514 10.4573C13.5937 10.3867 13.6205 10.3072 13.6299 10.2244L13.8273 8.49101C13.8348 8.42468 13.8173 8.35792 13.7785 8.30488C13.7398 8.25184 13.6828 8.2167 13.6197 8.20699L13.2978 8.15732C13.2288 8.14667 13.1636 8.1169 13.1092 8.07113C13.0547 8.02537 13.0129 7.96525 12.9879 7.89692C12.963 7.82859 12.9559 7.75451 12.9674 7.68235C12.9788 7.61019 13.0083 7.54252 13.053 7.48631C13.6354 6.72426 14.4146 6.15371 15.2978 5.84261C17.8703 4.99413 21.0257 6.22605 22.0693 8.64724C22.8571 10.4747 22.9579 13.0201 20.9681 15.9206C20.9466 15.9518 20.9362 15.9899 20.9388 16.0284C20.9414 16.0668 20.9568 16.1031 20.9824 16.1308C21.0079 16.1585 21.0419 16.1759 21.0785 16.18C21.1151 16.1841 21.1519 16.1745 21.1824 16.1531C22.3317 15.3239 23.241 14.1793 23.8105 12.8445C24.38 11.5098 24.5878 10.0366 24.4112 8.5863C24.2345 7.13602 23.6802 5.76473 22.8089 4.62268C21.9377 3.48064 20.7832 2.61191 19.472 2.11182C18.1608 1.61173 16.7434 1.49956 15.3753 1.78756C14.0073 2.07555 12.7414 2.7526 11.7162 3.74452C10.6911 4.73645 9.94639 6.00495 9.56376 7.41096C9.18113 8.81696 9.17534 10.3062 9.54701 11.7154C9.86748 13.0145 10.5085 14.2023 11.4056 15.1598C12.3028 16.1172 13.4245 16.8106 14.6582 17.1702Z" fill="black"/>
<path d="M21.2241 13.6369C21.733 12.7068 21.9075 11.6166 21.7162 10.5634C21.4791 9.24095 20.9649 8.52202 20.4939 8.38712L20.2813 8.33479C20.2444 8.3256 20.206 8.32533 20.1691 8.33403C20.1321 8.34273 20.0975 8.36013 20.068 8.38495C20.0384 8.40977 20.0146 8.44136 19.9985 8.47726C19.9823 8.51316 19.9741 8.55246 19.9746 8.59215L19.9916 10.2998C19.9925 10.4158 20.0154 10.5305 20.059 10.6371C20.1026 10.7438 20.1661 10.8403 20.2457 10.921C20.5627 11.2345 20.8213 11.6071 21.0081 12.0198C21.1264 12.2595 21.1959 12.5223 21.2124 12.7916C21.2289 13.0609 21.1919 13.3309 21.1038 13.5845C21.0972 13.6012 21.0971 13.62 21.1037 13.6367C21.1103 13.6535 21.123 13.6667 21.1389 13.6737C21.1549 13.6806 21.1728 13.6807 21.1888 13.6738C21.2047 13.6669 21.2175 13.6536 21.2241 13.6369Z" fill="black"/>
<path d="M16.6414 8.25135C16.7215 8.31301 16.814 8.35454 16.9118 8.3727C17.0097 8.39086 17.1102 8.38516 17.2056 8.35607L18.5609 7.94161C18.6119 7.92705 18.6565 7.8946 18.6873 7.84968C18.7182 7.80476 18.7334 7.7501 18.7303 7.69486L18.6981 7.18186C18.6874 7.01585 18.6285 6.85724 18.5291 6.72743C18.4298 6.59762 18.2948 6.50285 18.1424 6.45587C17.5841 6.21332 16.9866 6.08528 16.3822 6.07868C16.2139 6.05593 16.0427 6.0791 15.8854 6.14596C15.7281 6.21282 15.59 6.32109 15.4843 6.46031C15.3801 6.59198 15.2863 6.73241 15.2039 6.88013C15.1773 6.93131 15.1692 6.99086 15.1812 7.04779C15.1932 7.10473 15.2245 7.15521 15.2692 7.18988L16.6414 8.25135Z" fill="black"/>
<path d="M16.7986 10.0255L15.3586 10.9894C15.2575 11.0566 15.1789 11.155 15.1333 11.271C15.0878 11.3871 15.0777 11.515 15.1044 11.6373L15.4433 13.1895C15.4713 13.3163 15.5373 13.4303 15.6316 13.5148C15.726 13.5993 15.8438 13.6499 15.9676 13.659L17.7092 13.7869C17.8327 13.796 17.9558 13.7635 18.0604 13.694C18.1649 13.6245 18.2455 13.5218 18.2903 13.4008L18.8672 11.8441C18.9108 11.7265 18.9185 11.5976 18.889 11.4753C18.8596 11.353 18.7945 11.2433 18.7028 11.1616L17.4839 10.0734C17.3895 9.98993 17.2721 9.94024 17.1488 9.93162C17.0255 9.92299 16.9028 9.95588 16.7986 10.0255Z" fill="black"/>
<path d="M23.5026 17.7285C22.7742 17.4356 22.0087 17.2562 21.2307 17.196C20.6945 17.1276 19.9465 17.0939 19.1613 17.0566C19.1236 17.0564 19.087 17.043 19.0574 17.0185C19.0278 16.9941 19.0068 16.96 18.9978 16.9217C18.9749 16.8125 19.0588 16.7602 19.135 16.7052C19.3638 16.5401 19.5959 16.3741 19.8229 16.1726C19.9187 16.0833 19.9808 15.961 19.9981 15.8279C20.0153 15.6947 19.9865 15.5595 19.9169 15.4466C19.902 15.4245 19.8815 15.4073 19.8576 15.3969C19.8338 15.3865 19.8076 15.3835 19.7822 15.3881L18.4692 15.6942C18.2355 15.7484 18.0239 15.8782 17.8644 16.0653L17.08 16.9927C17.0526 17.0237 17.0373 17.0644 17.0373 17.1067C17.0373 17.149 17.0526 17.1898 17.08 17.2208C17.132 17.2764 17.1943 17.3201 17.2631 17.3494C17.3319 17.3787 17.4056 17.3929 17.4798 17.3912C21.2917 17.6051 21.7499 18.2929 19.0105 20.2987C17.6211 21.2927 16.3838 22.502 15.341 23.8853C16.1727 21.8826 17.3179 20.0396 18.7293 18.4323C18.7566 18.4024 18.7726 18.3632 18.7745 18.3219C18.7764 18.2807 18.764 18.24 18.7395 18.2076C18.7151 18.1752 18.6802 18.1531 18.6415 18.1455C18.6027 18.1378 18.5626 18.1451 18.5285 18.166C14.6429 20.5346 11.3595 23.8497 8.95662 27.8304C6.58386 28.1218 4.23145 28.573 1.91404 29.1812L1.82935 29.4013C1.80062 29.4814 1.79075 29.5676 1.80055 29.6525C1.81036 29.7375 1.83953 29.8187 1.88565 29.8893C1.93178 29.9599 1.99349 30.0179 2.06552 30.0582C2.13755 30.0986 2.2178 30.1201 2.29947 30.1211H19.4103C19.5753 30.1205 19.7363 30.0679 19.8722 29.97C20.0082 29.8722 20.1129 29.7337 20.1727 29.5726L20.9529 27.4665C19.3968 27.3697 17.7984 27.3262 16.1678 27.3449C15.8493 27.3484 15.5321 27.3544 15.2165 27.3626C15.4454 26.3555 15.9186 25.4273 16.5904 24.6681C18.1303 23.0173 19.966 21.7011 21.9922 20.7949C24.1599 19.713 25.4635 18.4908 23.5026 17.7285Z" fill="black"/>
</svg>
