<svg width="24" height="24" viewBox="0 0 24 24" fill="none" xmlns="http://www.w3.org/2000/svg">
<rect width="24" height="24" rx="12" fill="white"/>
<path fill-rule="evenodd" clip-rule="evenodd" d="M10.5399 10.3001V9.67605C10.3233 9.64538 10.1049 9.62945 9.8861 9.62842C7.21102 9.62842 5.03467 11.8051 5.03467 14.4802C5.03467 16.1212 5.85478 17.5738 7.10585 18.4522C6.26816 17.5563 5.80244 16.3755 5.80312 15.149C5.80312 12.512 7.91753 10.3617 10.5399 10.3001Z" fill="#C5143A"/>
<path fill-rule="evenodd" clip-rule="evenodd" d="M10.6544 17.3645C11.8479 17.3645 12.8216 16.415 12.8659 15.2317L12.8699 4.66877H14.7997C14.7585 4.44823 14.7376 4.22436 14.7374 4H12.1019L12.0975 14.5633C12.0535 15.7462 11.0795 16.6953 9.8863 16.6953C9.52806 16.6955 9.17523 16.6082 8.8584 16.441C9.06296 16.7264 9.33256 16.9591 9.64486 17.1196C9.95716 17.2802 10.3032 17.3641 10.6544 17.3645ZM18.4045 8.25414V7.66707C17.6953 7.66774 17.0013 7.46144 16.4077 7.07343C16.9282 7.6727 17.6289 8.08697 18.4049 8.25414" fill="#C5143A"/>
<path fill-rule="evenodd" clip-rule="evenodd" d="M18.4044 8.25403V10.3025C17.0375 10.3025 15.7714 9.86533 14.7373 9.12326V14.4797C14.7373 17.1548 12.5613 19.3311 9.88623 19.3311C8.85247 19.3311 7.89383 19.005 7.10596 18.4517C7.55893 18.9401 8.1079 19.3298 8.7185 19.5962C9.3291 19.8626 9.98813 20.0001 10.6543 19.9999C13.3294 19.9999 15.5058 17.8236 15.5058 15.1488V9.79239C16.5741 10.5606 17.857 10.9732 19.1728 10.9716V8.3354C18.909 8.3354 18.6525 8.3068 18.4044 8.25366" fill="white"/>
<path fill-rule="evenodd" clip-rule="evenodd" d="M14.7373 14.4798V9.12341C15.8056 9.89168 17.0885 10.3042 18.4044 10.3026V8.25418C17.6286 8.08685 16.9279 7.67245 16.4076 7.07311C15.9909 6.80206 15.6335 6.44925 15.3571 6.03604C15.0807 5.62284 14.891 5.15784 14.7996 4.66919H12.8699L12.8658 15.2321C12.8215 16.415 11.8478 17.3645 10.6543 17.3645C10.3031 17.3642 9.9571 17.2802 9.6448 17.1196C9.33253 16.9591 9.06293 16.7265 8.85833 16.4411C8.50043 16.2534 8.2006 15.9716 7.99127 15.6259C7.78193 15.2802 7.67107 14.8839 7.67067 14.4798C7.67133 13.8924 7.90497 13.3293 8.32033 12.9139C8.73567 12.4986 9.29883 12.2649 9.88623 12.2642C10.1142 12.2642 10.3329 12.3016 10.54 12.3669V10.3001C7.91763 10.3616 5.80322 12.512 5.80322 15.149C5.80322 16.4242 6.29867 17.5851 7.10596 18.4521C7.9198 19.0251 8.89097 19.3321 9.88623 19.3313C12.5613 19.3313 14.7373 17.1549 14.7373 14.4798Z" fill="#C5143A"/>
</svg>
