<svg width="24" height="24" viewBox="0 0 24 24" fill="none" xmlns="http://www.w3.org/2000/svg">
<rect width="24" height="24" rx="12" fill="#89212A"/>
<path fill-rule="evenodd" clip-rule="evenodd" d="M10.5399 10.3V9.67596C10.3233 9.64529 10.1049 9.62936 9.8861 9.62833C7.21102 9.62833 5.03467 11.8051 5.03467 14.4802C5.03467 16.1211 5.85478 17.5737 7.10585 18.4521C6.26816 17.5563 5.80244 16.3754 5.80312 15.1489C5.80312 12.5119 7.91753 10.3616 10.5399 10.3Z" fill="#C5143A"/>
<path fill-rule="evenodd" clip-rule="evenodd" d="M10.6544 17.3645C11.8479 17.3645 12.8216 16.415 12.8659 15.2317L12.8699 4.66877H14.7997C14.7585 4.44823 14.7376 4.22436 14.7374 4H12.1019L12.0975 14.5633C12.0535 15.7462 11.0795 16.6953 9.8863 16.6953C9.52806 16.6955 9.17523 16.6082 8.8584 16.441C9.06296 16.7264 9.33256 16.9591 9.64486 17.1196C9.95716 17.2802 10.3032 17.3641 10.6544 17.3645ZM18.4045 8.25414V7.66707C17.6953 7.66774 17.0013 7.46144 16.4077 7.07343C16.9282 7.6727 17.6289 8.08697 18.4049 8.25414" fill="#C5143A"/>
<path fill-rule="evenodd" clip-rule="evenodd" d="M18.4044 8.25412V10.3026C17.0375 10.3026 15.7714 9.86542 14.7373 9.12335V14.4798C14.7373 17.1548 12.5613 19.3312 9.88623 19.3312C8.85247 19.3312 7.89383 19.0051 7.10596 18.4517C7.55893 18.9402 8.1079 19.3299 8.7185 19.5963C9.3291 19.8627 9.98813 20.0001 10.6543 20C13.3294 20 15.5058 17.8236 15.5058 15.1489V9.79249C16.5741 10.5607 17.857 10.9733 19.1728 10.9717V8.33549C18.909 8.33549 18.6525 8.30689 18.4044 8.25375" fill="#C5143A"/>
<path fill-rule="evenodd" clip-rule="evenodd" d="M14.7373 14.4797V9.12332C15.8056 9.89159 17.0885 10.3042 18.4044 10.3026V8.25409C17.6286 8.08676 16.9279 7.67236 16.4076 7.07302C15.9909 6.80197 15.6335 6.44916 15.3571 6.03595C15.0807 5.62275 14.891 5.15774 14.7996 4.6691H12.8699L12.8658 15.232C12.8215 16.4149 11.8478 17.3644 10.6543 17.3644C10.3031 17.3641 9.9571 17.2801 9.6448 17.1195C9.33253 16.959 9.06293 16.7264 8.85833 16.441C8.50043 16.2533 8.2006 15.9715 7.99127 15.6258C7.78193 15.2801 7.67107 14.8838 7.67067 14.4797C7.67133 13.8923 7.90497 13.3292 8.32033 12.9139C8.73567 12.4985 9.29883 12.2649 9.88623 12.2642C10.1142 12.2642 10.3329 12.3016 10.54 12.3668V10.3C7.91763 10.3616 5.80322 12.5119 5.80322 15.1489C5.80322 16.4241 6.29867 17.585 7.10596 18.452C7.9198 19.025 8.89097 19.332 9.88623 19.3312C12.5613 19.3312 14.7373 17.1548 14.7373 14.4797Z" fill="#C5143A"/>
</svg>
