<svg width="24" height="24" viewBox="0 0 24 24" fill="none" xmlns="http://www.w3.org/2000/svg"><path d="M18.372 3.099a.75.75 0 00-.744 1.302l4.631 2.644v.003a.01.01 0 010 .007L20.536 10.5H18a.75.75 0 000 1.5h2.539c.426 0 .788-.224.788-.224.363-.224.55-.603.55-.603l1.727-3.453c.264-.534.092-1.105.092-1.105-.173-.571-.693-.873-.693-.873L18.372 3.1zM1.74 7.045l4.632-2.644A.75.75 0 105.628 3.1L.997 5.742c-.52.302-.693.873-.693.873-.172.57.092 1.105.092 1.105l1.727 3.453c.187.379.55.603.55.603.362.225.788.224.788.224H6a.75.75 0 000-1.5H3.464L1.74 7.055c-.002-.003 0-.007 0-.007v-.003z" fill="#fff"/><path fill-rule="evenodd" clip-rule="evenodd" d="M18 3a.75.75 0 01.75.75V19.5s0 .621-.44 1.06c0 0-.439.44-1.06.44H6.75s-.621 0-1.06-.44c0 0-.44-.439-.44-1.06V3.75A.75.75 0 016 3h3a.75.75 0 01.75.75s0 .932.659 1.591c0 0 .66.659 1.591.659 0 0 .932 0 1.591-.659 0 0 .659-.659.659-1.591A.75.75 0 0115 3h3zm-2.319 1.5h1.569v15H6.75v-15h1.569s.206 1.079 1.03 1.902c0 0 1.098 1.098 2.651 1.098 0 0 1.553 0 2.652-1.098 0 0 .823-.823 1.029-1.902z" fill="#fff"/></svg>