<svg width="128" height="128" viewBox="0 0 128 128" fill="none" xmlns="http://www.w3.org/2000/svg"><path d="M126.682 63.962c0 34.585-28.045 62.63-62.63 62.63-34.586 0-62.631-28.045-62.631-62.63 0-34.586 28.045-62.63 62.63-62.63 34.586 0 62.631 28.031 62.631 62.63z" fill="#fff"/><path d="M64.051 4.378c-32.909 0-59.584 26.675-59.584 59.584 0 32.908 26.675 59.584 59.584 59.584 32.91 0 59.584-26.676 59.584-59.584 0-32.91-26.675-59.584-59.584-59.584zm0 103.321c-24.153 0-43.737-19.584-43.737-43.737 0-24.154 19.584-43.738 43.737-43.738 5.581 0 10.919 1.05 15.821 2.944 13.21 5.133 23.322 16.5 26.701 30.49a44.121 44.121 0 011.216 10.304c0 24.153-19.584 43.737-43.738 43.737z" fill="#1E1F1E"/><path d="M79.872 23.168a28.69 28.69 0 00-2.585-.115c-16.18 0-29.312 13.12-29.312 29.312s13.12 29.312 29.312 29.312c15.756 0 28.608-12.429 29.273-28.02-3.366-13.99-13.465-25.356-26.688-30.489zm-2.585 53.85c-13.62 0-24.653-11.034-24.653-24.653 0-13.607 11.033-24.653 24.653-24.653 13.619 0 24.652 11.034 24.652 24.653 0 13.619-11.033 24.653-24.652 24.653z" fill="#1E1F1E"/><path d="M101.939 52.365c0 .793-.038 1.574-.115 2.355-.025.294-.064.589-.102.896a24.45 24.45 0 01-4.083 10.662c-.09.141-.192.27-.282.41a24.551 24.551 0 01-3.418 3.866 24.593 24.593 0 01-16.652 6.476h-.103c-13.03-.05-23.68-10.227-24.499-23.065 0-.077-.013-.154-.013-.218a24.004 24.004 0 01-.038-1.357c0-2.201.281-4.326.832-6.348a24.514 24.514 0 012.854-6.605 22.44 22.44 0 012.112-2.906 25.886 25.886 0 012.087-2.189 24.549 24.549 0 016.49-4.352c.358-.166.716-.32 1.074-.46a24.468 24.468 0 019.216-1.78c.91 0 1.818.052 2.701.154a24.54 24.54 0 0112.288 4.928c.32.256.653.512.96.78a24.953 24.953 0 016.157 7.86 24.557 24.557 0 012.534 10.893z" fill="#fff"/><path d="M99.162 54.106c-.602 11.558-10.163 20.761-21.876 20.761-11.712 0-21.273-9.19-21.862-20.761 3.34 8.832 11.866 15.116 21.863 15.116 10.01 0 18.534-6.284 21.875-15.116z" fill="#849BA8"/><path d="M72.973 39.757c-.359 1.779-.973 4.109-1.14 7.961-.729.295-3.699 1.396-6.758 3.085.883.397 6.771 2.688 6.912 2.74.039.767.832 7.142 1.255 8.307.819-1.383 3.033-4.928 4.275-6.708.665.18 3.251 1.14 8.563 1.946-1.242-1.306-5.363-6.195-5.594-6.464.756-1.011 5.274-7.13 5.274-7.13s-5.069 1.152-8.742 2.42c-1.703-2.292-4.045-6.157-4.045-6.157zM82.931 32.32c-3.085-.051-4.8.09-7.5.55-.372.461-1.703 2.202-2.535 6.068-.525-.512-2.42-2.65-3.674-4.954-.473.14-2.79.998-5.49 2.06.486-.703 1.254-1.83 4.633-4.095-.192-.333-.947-1.383-1.37-1.984.359-.167.717-.32 1.075-.461 1.46-.038 3.725-.09 4.992.026 1.293-.564 3.034-1.114 6.925-1.664.333.038.666.076.999.128-.525.268-1.51.883-3.162 2.316 2.406.756 3.904 1.242 5.107 2.01zM62.298 36.954c-1.447 1.1-3.38 2.739-4.186 3.57-.243 1.831-.46 2.65-.665 5.415-.436-.486-1.178-1.561-1.69-2.79-.742.832-1.562 1.92-2.291 2.867a24.514 24.514 0 012.854-6.605 22.44 22.44 0 012.112-2.905 25.886 25.886 0 012.087-2.19c-.602 1.268-1.012 2.074-1.05 2.906 1.254-.179 1.766-.243 2.829-.268zM58.931 56c.986 3.546 1.703 4.736 2.112 5.67-.678-.358-3.392-2.188-4.057-2.65-.397.487-.999 1.87-1.78 3.7-1.19-3.776-.755-5.9-.768-6.298-.307-.384-1.152-1.676-1.74-2.457 0-.077-.013-.154-.013-.218.717-.589 1.318-.921 2.432-1.357.525-1.97 1.856-4.659 2.33-5.312-.013.384.32 3.687.409 4.583 3.264-.602 5.35-.602 5.888-.602-1.702 1.613-4.454 4.519-4.813 4.941zM61.94 62.707c.819.691 1.471 1.651 5.388 4.275.832-.473 3.495-2.137 5.607-4.16-.103.717-.602 3.943-.935 6.99.397.217 4.48 2.444 5.082 2.662-1.14.115-3.725.153-5.069.166.064 1.19.23 2.662.474 3.38-.973-.308-3.405-1.422-5.517-4.02-.781-.077-4.992-.666-7.079-2.803.896-.013 2.79-.013 4.583-.896-.333-.602-1.357-2.407-2.535-5.594zM93.94 70.54a24.593 24.593 0 01-16.653 6.478h-.103c3.008-.999 3.495-1.524 4.109-1.959-.422-.23-2.074-1.293-3.136-2.33.5.09 5.171.295 6.029.295 2.61-2.688 2.61-2.867 4.275-4.851.18 1.6.038 3.11-.115 4.237 1.536-.192 4.313-1.319 5.593-1.87zM101.824 54.72c-.025.294-.064.589-.102.896-1.741 3.891-2.573 5.005-3.226 5.786 0 2.06-.32 2.688-.857 4.864-.09.14-.192.268-.282.41-.627-1.038-1.613-1.818-2.112-2.138-3.277 1.984-4.186 2.29-6.26 2.828.462-.512 2.228-3.276 3.162-4.876-1.907-1.536-3.084-2.663-4.8-4.621 0 0 6.413.051 7.27 0 1.882-3.43 2.817-6.016 3.38-7.463.294.935.64 4.724.691 6.336 2.061-.857 3.136-2.022 3.136-2.022zM97.255 42.291c.806 3.725.576 5.44.55 6.285-1.92-3.456-3.93-6.246-4.16-6.554-3.302.116-4.8.474-6.733.756.947-.717 3.264-4.365 3.482-4.775-3.443-3.507-4.967-4.582-5.824-5.26 4.147.537 5.798 1.561 7.321 2.367.18-.614.32-1.638.384-2.33.32.257.653.513.96.782 1.421 2.112 2.01 3.34 2.19 3.788.985.704 2.828 2.586 3.967 4.084.269.55.525 1.113.755 1.69-.857-.462-2.521-.833-2.892-.833z" fill="#1E1F1E"/><path d="M73.664 43.635s-.422 2.202-.589 5.018c-1.984.96-2.892 1.293-3.187 1.446 1.613.423 3.52.947 8.461.563.704-.96 3.469-4.672 3.469-4.672l-5.658 1.562-2.496-3.917zM76.915 29.466c-1.062.076-3.148.46-4.39 1.062-.78-.013-2.368-.013-3.52.128.32.46.82 1.126.82 1.126s-1.089.768-2.382 2.202c.87-.32 2.983-.998 2.983-.998s.537.972 1.907 2.688c.397-1.498.73-2.356 1.498-3.316.69-.192 1.203-.435 3.75-.41-.666-.294-1.382-.729-2.483-1.01.601-.564 1.472-1.28 1.817-1.472zM59.405 38.323l-2.112 1.843-.166.653-.807-1.408a22.44 22.44 0 012.112-2.905c-.205.64-.474 1.561-.486 1.984.921-.141 1.459-.167 1.459-.167zM92.915 34.944l-.09 1.446s-1.484-.78-3.967-1.203c1.612 1.46 2.739 2.445 3.072 2.919-.756 1.1-1.895 2.739-1.895 2.739s1.946-.538 3.738-.525c.218.102.333.205.333.205s1.318-1.984 1.446-2.163c-.282-.18-.64-.512-.794-.615-.345-.742-.87-1.766-1.843-2.803z" fill="#414245"/><path d="M106.598 52.595c0 .346-.012.704-.025 1.05-.077-.295-.141-.589-.218-.87l.243-.18z" fill="#000"/><path d="M106.598 52.595c0 .346-.012.704-.025 1.05-.077-.295-.141-.589-.218-.87l.243-.18z" fill="#000"/><path d="M48.845 59.456L24.871 83.418a42.178 42.178 0 01-1.792-4.122L48.05 54.323c.116 1.767.384 3.469.794 5.133zM52.365 67.789L29.44 90.7a41.276 41.276 0 01-2.432-3.482l23.335-23.334a28.137 28.137 0 002.022 3.904zM57.74 74.189L35.15 96.78a46.041 46.041 0 01-3.008-2.906l22.681-22.681a30.727 30.727 0 002.919 2.995zM64.845 78.912L42.01 101.747a43.965 43.965 0 01-3.584-2.33l22.63-22.63a33.322 33.322 0 003.789 2.125zM107.789 63.962c0 24.153-19.584 43.737-43.738 43.737a43.533 43.533 0 01-18.137-3.929l23.245-23.245a29.436 29.436 0 008.14 1.152c15.757 0 28.608-12.429 29.274-28.02a43.987 43.987 0 011.216 10.305z" fill="#C5143A"/><path d="M51.904 109.338l-3.712 1.011.23 2.445 2.1-.256-1.523 5.708 3.11.832 2.42-9.049-2.625-.691zM61.952 111.962c-.538-.858-1.446-1.344-2.752-1.472-1.1-.116-1.997.064-2.675.537-.678.461-1.088 1.242-1.19 2.33-.103 1.088.063 1.92.524 2.483.461.563 1.23.896 2.304 1.011a2.9 2.9 0 001.05-.089l.154-.039c-.064.32-.18.551-.359.691-.18.141-.448.192-.82.167-.793-.077-1.702-.256-2.751-.512l-.46 2.329.511.18c1.024.345 1.946.55 2.765.627.474.051.947.013 1.408-.09.474-.102.909-.32 1.318-.64.832-.653 1.344-1.933 1.536-3.827.154-1.613-.025-2.829-.563-3.686zm-2.342 2.329c-.256.09-.525.115-.82.09-.422-.039-.614-.295-.563-.755.052-.461.295-.666.73-.615.307.026.512.141.589.333.077.192.102.512.064.947zM70.49 117.453l-2.906.166.909-.717c.742-.588 1.242-1.126 1.498-1.638.255-.512.358-1.19.307-2.061-.052-.87-.397-1.523-1.037-1.971-.64-.448-1.498-.64-2.573-.576a9.188 9.188 0 00-3.06.704l.282 2.419.295-.077a9.975 9.975 0 011.869-.268c.358-.026.614 0 .755.051.14.064.23.217.243.461.013.102 0 .204-.013.307-.013.102-.09.256-.204.461a3.069 3.069 0 01-.41.563l-.563.627c-.23.256-.474.525-.717.781L64 117.952l.14 2.445 6.503-.384-.153-2.56zM79.015 113.536c-.384-1.69-.922-2.842-1.613-3.456-.691-.614-1.703-.781-3.047-.474-1.344.308-2.201.884-2.572 1.754-.384.87-.384 2.138 0 3.814.37 1.677.908 2.829 1.612 3.456.704.628 1.728.781 3.072.487 1.344-.307 2.215-.883 2.573-1.754.371-.87.359-2.15-.025-3.827zm-3.124 2.97c-.192.038-.345-.064-.473-.308-.115-.256-.282-.819-.487-1.728-.204-.896-.307-1.497-.294-1.792 0-.166.026-.281.077-.332a.305.305 0 01.217-.116.435.435 0 01.256.013c.064.039.141.128.205.269.077.154.141.358.218.614.077.269.192.743.345 1.434.154.691.23 1.178.23 1.459-.012.282-.102.435-.294.487zM18.65 75.891l-8.78 1.69-1.217-6.336 2.483-.474.64 3.29 1.421-.269-.5-2.496 2.484-.474.487 2.51 2.406-.462.576 3.021zM14.285 66.138l2.97-.09.102 3.098-8.934.281-.103-3.097 3.162-.103-.013-.537-3.187-.896-.103-3.072 4.365 1.292 4.57-1.702.102 3.11-2.944 1.178.013.538zM8.589 53.99l-2.048.973.435-2.214.845-.026-.78-.333.434-2.214 1.485 1.818-.371 1.996zm2.547 3.008l-2.47-.486 1.382-6.938 2.47.487 3.034 3.558.218.039.563-2.842 2.47.486-1.382 6.938-2.355-.474-3.136-3.648-.218-.038-.576 2.918zM18.919 50.995l-8.397-3.059 2.29-6.298 2.318.845-1.23 3.392.718.256.96-2.637 2.29.832-.96 2.637.756.269 1.229-3.392 2.317.845-2.291 6.31zM24.359 38.9l-2.868 5.273-7.859-4.263 1.472-2.726 5.645 3.06 1.383-2.56 2.227 1.215zM24.564 38.58l-7.169-5.351 4.007-5.363 1.984 1.472-2.15 2.892.614.461 1.677-2.24 1.958 1.46-1.677 2.24.64.473 2.15-2.893 1.985 1.472-4.02 5.376zM24.474 28.16l-1.754-1.818 5.082-4.915 1.753 1.818.474 4.646.154.167 2.086-2.01 1.754 1.818-5.082 4.902-1.677-1.728-.512-4.787-.153-.167-2.125 2.074zM34.611 27.507l-5.388-7.13 2.47-1.868 5.389 7.13-2.47 1.868zM37.453 25.165l-2.637-8.768 4.083-2.291 6.119 6.822-2.727 1.523-.716-.768-1.78.999.32.998-2.662 1.485zm.46-7.719l1.076 2.97 1.152-.64-1.933-2.496-.294.166zM48.141 17.46l-.717.242.755 2.19-2.93 1.01-2.92-8.448 3.56-1.228c1.305-.448 2.316-.55 3.02-.32.717.243 1.267.947 1.677 2.112.41 1.177.384 2.124-.064 2.841l1.83 2.586-2.982 1.024-1.229-2.01zm-.806-2.305c.41-.14.524-.486.332-1.037-.192-.55-.512-.742-.972-.588l-.64.217.576 1.651.704-.243zM52.672 18.33l-1.37-8.832 3.009-.461 2.547 3.033.18-.025-.526-3.354 3.06-.473 1.37 8.832-3.022.473-2.56-3.29-.192.026.563 3.597-3.059.474zM61.658 17.075l.166-8.947 6.695.128-.039 2.47-3.597-.064-.012.756 2.803.05-.039 2.446-2.803-.052-.013.807 3.597.064-.051 2.47-6.707-.128zM75.495 16.589l-.397-.103-.448 1.844-3.008-.73 2.125-8.691 3.404.832c1.37.333 2.317.819 2.83 1.446.511.627.6 1.6.28 2.906-.32 1.305-.857 2.137-1.612 2.483-.742.346-1.805.346-3.174.013zm.179-2.47l.269.063c.37.09.652.077.857-.05.205-.129.346-.385.448-.782.103-.396.09-.678-.025-.857-.116-.18-.372-.307-.756-.41l-.268-.064-.525 2.1zM88.563 18.675c-.652 1.485-1.433 2.432-2.355 2.842-.909.397-2.048.307-3.405-.295-1.356-.601-2.201-1.37-2.521-2.316-.32-.948-.167-2.164.486-3.661.653-1.485 1.434-2.432 2.355-2.829.91-.397 2.048-.307 3.418.294 1.357.602 2.202 1.37 2.522 2.317.32.947.153 2.163-.5 3.648zm-4.94-2.163c-.308.691-.461 1.216-.461 1.587 0 .359.217.64.64.832.422.192.768.154 1.037-.09.268-.243.55-.716.857-1.42.307-.704.461-1.229.474-1.587 0-.359-.205-.628-.64-.82-.435-.192-.781-.166-1.05.09-.256.243-.55.717-.857 1.408zM90.202 25.1l-3.251-2.188 5.005-7.411 3.123 2.112c1.28.857 1.997 1.766 2.176 2.726.166.96-.167 2.061-1.024 3.328-.858 1.267-1.767 2.035-2.727 2.291-.96.27-2.06-.012-3.302-.857zm3.366-3.058c.448-.666.679-1.152.692-1.46.012-.307-.218-.627-.692-.947l-.448-.307-2.189 3.226.448.307c.384.256.73.358 1.05.281.307-.064.691-.435 1.14-1.1zM100.275 21.402l2.906 2.816c1.562 1.523 1.83 2.803.806 3.865-.396.397-.729.666-1.036.807-.295.128-.679.166-1.127.102.179.435.243.806.167 1.126-.077.308-.32.692-.768 1.14-1.178 1.216-2.586 1.024-4.237-.576l-2.944-2.855 6.233-6.425zm-1.024 6.528l-.512-.5-1.024 1.05.512.5c.218.217.41.32.563.332.154 0 .32-.102.512-.294.192-.205.295-.384.282-.538-.013-.166-.128-.346-.333-.55zm2.317-2.432l-.486-.474-.999 1.024.5.486c.192.192.371.27.524.27.154-.014.32-.103.5-.282.179-.18.256-.346.256-.512-.013-.167-.116-.333-.295-.512zM103.731 34.97l-.448-.615-1.856 1.37-1.843-2.483 7.207-5.3 2.227 3.034c.819 1.114 1.216 2.048 1.203 2.79-.013.756-.525 1.498-1.523 2.228-.999.73-1.907.998-2.727.78l-1.932 2.51-1.869-2.535 1.561-1.78zm1.959-1.46c.256.346.627.359 1.088.013.473-.345.563-.717.269-1.113l-.41-.55-1.408 1.036.461.614zM104.346 39.86l7.974-4.058 3.034 5.977-2.202 1.114-1.638-3.213-.679.346 1.268 2.496-2.176 1.1-1.268-2.496-.716.359 1.638 3.213-2.202 1.113-3.033-5.952zM113.754 44.493l2.406-.755 2.138 6.745-2.407.755-4.377-1.65-.218.063.871 2.765-2.407.755-2.137-6.745 2.291-.73 4.505 1.677.218-.064-.883-2.816zM115.456 61.274c-1.612.217-2.828.038-3.648-.538-.819-.576-1.331-1.587-1.523-3.06-.192-1.471.026-2.585.666-3.366.64-.768 1.766-1.267 3.379-1.484 1.613-.218 2.829-.039 3.635.537.819.576 1.331 1.6 1.523 3.072.192 1.472-.025 2.599-.652 3.367-.64.755-1.767 1.254-3.38 1.472zm-.716-5.35c-.756.102-1.28.242-1.588.434-.307.192-.435.512-.371.986.064.46.269.742.615.845.345.102.896.09 1.664-.013.768-.102 1.292-.243 1.6-.422.307-.18.422-.5.358-.973-.064-.474-.269-.755-.614-.858-.372-.102-.922-.102-1.664 0zM119.693 69.542l-8.896-1.996.128-4.557 8.986-1.575-.09 3.277-5.837.538-.012.243 5.798.78-.077 3.29zM110.861 68.582l8.41 3.623-.884 4.595-9.164.294.588-3.072 1.063-.05.384-2.01-.973-.41.576-2.97zm5.606 5.325l-2.969-1.088-.243 1.293 3.161.115.051-.32zm4.928-.14l-.614 3.174-1.51-1.767.448-2.304 1.676.896z" fill="#fff"/></svg>