<svg width="36" height="36" viewBox="0 0 36 36" fill="none" xmlns="http://www.w3.org/2000/svg"><g clip-path="url(#clip0_2507_579)"><path fill-rule="evenodd" clip-rule="evenodd" d="M4.395 0h27.21c1.528 0 2.082.16 2.641.458.559.299.997.737 1.296 1.296.299.559.458 1.113.458 2.641v27.21c0 1.528-.16 2.082-.458 2.641a3.116 3.116 0 01-1.296 1.296c-.559.299-1.113.458-2.641.458H4.395c-1.528 0-2.082-.16-2.641-.458a3.116 3.116 0 01-1.296-1.296C.159 33.687 0 33.133 0 31.605V4.395c0-1.528.16-2.082.458-2.641A3.115 3.115 0 011.754.458C2.313.159 2.867 0 4.395 0z" fill="#000100"/><mask id="a" style="mask-type:luminance" maskUnits="userSpaceOnUse" x="19" y="25" width="5" height="3"><path d="M20.278 25.553a.933.933 0 100 1.866h2.756v-1.866h-2.756z" fill="#fff"/></mask><g mask="url(#a)"><path fill-rule="evenodd" clip-rule="evenodd" d="M20.278 25.553a.933.933 0 100 1.866h2.756v-1.866h-2.756z" fill="url(#paint0_linear_2507_579)"/></g><path fill-rule="evenodd" clip-rule="evenodd" d="M21.808 24.244a2.418 2.418 0 00-.902-.553c-.327-.112-.709-.147-1.115-.135-.828.034-1.736.481-2.391 1.126-.333.32-.602.697-.793 1.093-.189.398-.284.819-.288 1.236.001.257.04.514.113.767.143.484.388.87.73 1.127.338.262.79.399 1.28.412.375.007.765-.06 1.135-.186.37-.13.718-.323 1.012-.56.385-.32.737-.656.995-1.007a2.97 2.97 0 00.318-.537c.083-.185.142-.379.196-.613l.028-.123.003-.012a.929.929 0 011.812.403l-.01.05-.008.033-.015.066c-.07.3-.168.636-.31.952a4.834 4.834 0 01-.518.88c-.395.535-.85.957-1.312 1.34a5.24 5.24 0 01-3.366 1.169 4.401 4.401 0 01-1.223-.2 3.729 3.729 0 01-2.019-1.541 4.4 4.4 0 01-.509-1.126 4.603 4.603 0 01-.189-1.292c.002-.71.17-1.41.466-2.028a5.673 5.673 0 011.174-1.63 6.086 6.086 0 011.627-1.138 5.116 5.116 0 011.989-.514c.076-.003.15-.004.224-.004.501 0 1.029.057 1.55.232a4.289 4.289 0 011.658 1.027l.019.018.022.021.026.026a.929.929 0 01-1.304 1.32l-.023-.022-.082-.077z" fill="url(#paint1_linear_2507_579)"/><path fill-rule="evenodd" clip-rule="evenodd" d="M6.032 29.196l-1.181 1.87H8.9a.935.935 0 00.936-.935c0-.497-.392-.935-.877-.935H6.032z" fill="url(#paint2_linear_2507_579)"/><path d="M28.33 22.951l.767 3.71a2.754 2.754 0 011.834-.277l-.764-3.778-1.837.345z" fill="url(#paint3_linear_2507_579)"/><path fill-rule="evenodd" clip-rule="evenodd" d="M32.249 29.43c-.072-.352-.28-.885-.28-.885.203-.309.222-.514.222-.514.096.06.207.252.235.303a2.17 2.17 0 00-.866-1.058l-.006.04s-.413-.165-.746-.17c0 0-.242-.157-.583-.204a2.175 2.175 0 00-.91.279c-.023.025-.223.25-.298.515 0 0-.353.204-.63.71 0 0-.024-.09-.014-.15a2.163 2.163 0 00-.054 1.482.877.877 0 01.041-.503s.232.164.551.305c0 0 .129.514.417.92 0 0-.146.22-.415.206.466.431 1.112.653 1.782.558-.461-.264-.476-.457-.476-.457.472-.276.68-.552.68-.552.555.077.866.024.866.024-.005.46-.148.63-.155.637.52-.35.87-.915.946-1.543-.126.121-.307.057-.307.057z" fill="#fff"/><mask id="b" style="mask-type:luminance" maskUnits="userSpaceOnUse" x="30" y="26" width="2" height="2"><path d="M30.225 26.942c.34.048.583.204.583.204.333.005.746.17.746.17l.006-.04c-.037-.023-.075-.048-.113-.069l-.018-.01a2.145 2.145 0 00-.164-.08l-.028-.011a2.17 2.17 0 00-1.012-.164z" fill="#fff"/></mask><g mask="url(#b)"><path fill-rule="evenodd" clip-rule="evenodd" d="M30.225 26.942c.34.048.583.204.583.204.333.005.746.17.746.17l.006-.04c-.037-.023-.075-.048-.113-.069l-.018-.01a2.145 2.145 0 00-.164-.08l-.028-.011a2.17 2.17 0 00-1.012-.164z" fill="#FF4600"/></g><mask id="c" style="mask-type:luminance" maskUnits="userSpaceOnUse" x="28" y="27" width="2" height="2"><path d="M28.373 28.296c-.01.06.015.15.015.15.276-.506.63-.71.63-.71.074-.264.274-.49.297-.515a2.18 2.18 0 00-.942 1.075z" fill="#fff"/></mask><g mask="url(#c)"><path fill-rule="evenodd" clip-rule="evenodd" d="M28.373 28.296c-.01.06.015.15.015.15.276-.506.63-.71.63-.71.074-.264.274-.49.297-.515a2.18 2.18 0 00-.942 1.075z" fill="#FF4600"/></g><mask id="d" style="mask-type:luminance" maskUnits="userSpaceOnUse" x="28" y="29" width="2" height="2"><path d="M28.32 29.778a2.165 2.165 0 00.292.587l.03.041c.041.054.08.102.116.143.019.02.038.043.058.063l.04.043.057.051a.494.494 0 00.415-.206 3.126 3.126 0 01-.416-.92c-.32-.141-.552-.305-.552-.305a.88.88 0 00-.04.503z" fill="#fff"/></mask><g mask="url(#d)"><path fill-rule="evenodd" clip-rule="evenodd" d="M28.32 29.778a2.165 2.165 0 00.292.587l.03.041c.041.054.08.102.116.143.019.02.038.043.058.063l.04.043.057.051a.494.494 0 00.415-.206 3.126 3.126 0 01-.416-.92c-.32-.141-.552-.305-.552-.305a.88.88 0 00-.04.503z" fill="#FF4600"/></g><mask id="e" style="mask-type:luminance" maskUnits="userSpaceOnUse" x="30" y="30" width="2" height="2"><path d="M30.219 30.807s.015.193.476.457c.034-.005.068-.008.103-.014.294-.056.563-.169.798-.324l.005-.003.01-.007c.006-.008.149-.177.154-.638 0 0-.31.054-.865-.023 0 0-.209.276-.681.552z" fill="#fff"/></mask><g mask="url(#e)"><path fill-rule="evenodd" clip-rule="evenodd" d="M30.219 30.807s.015.193.476.457c.034-.005.068-.008.103-.014.294-.056.563-.169.798-.324l.005-.003.01-.007c.006-.008.149-.177.154-.638 0 0-.31.054-.865-.023 0 0-.209.276-.681.552z" fill="#FF4600"/></g><mask id="f" style="mask-type:luminance" maskUnits="userSpaceOnUse" x="31" y="28" width="2" height="2"><path d="M31.968 28.544s.208.534.28.886c0 0 .182.064.307-.057a2.172 2.172 0 00-.13-1.04c-.027-.05-.138-.243-.235-.302 0 0-.018.205-.222.513z" fill="#fff"/></mask><g mask="url(#f)"><path fill-rule="evenodd" clip-rule="evenodd" d="M31.968 28.544s.208.534.28.886c0 0 .182.064.307-.057a2.172 2.172 0 00-.13-1.04c-.027-.05-.138-.243-.235-.302 0 0-.018.205-.222.513z" fill="#FF4600"/></g><mask id="g" style="mask-type:luminance" maskUnits="userSpaceOnUse" x="29" y="27" width="3" height="3"><path d="M29.589 27.947s-.103.48-.036 1.062c0 0 .374.16 1.036.328 0 0 .332-.249.687-.917 0 0-.21-.422-.63-.796 0 0-.472.015-1.057.323z" fill="#fff"/></mask><g mask="url(#g)"><path fill-rule="evenodd" clip-rule="evenodd" d="M29.589 27.947s-.103.48-.036 1.062c0 0 .374.16 1.036.328 0 0 .332-.249.687-.917 0 0-.21-.422-.63-.796 0 0-.472.015-1.057.323z" fill="url(#paint4_radial_2507_579)"/></g><path d="M5.768 22.571L3.944 29.85a.934.934 0 00.89 1.216.945.945 0 00.913-.736l1.841-7.34a.932.932 0 00-.91-1.143.934.934 0 00-.91.725z" fill="url(#paint5_linear_2507_579)"/><path fill-rule="evenodd" clip-rule="evenodd" d="M12.545 22.571L10.72 29.85a.934.934 0 00.89 1.216.945.945 0 00.913-.736l1.842-7.34a.934.934 0 10-1.82-.418z" fill="url(#paint6_linear_2507_579)"/><path d="M28.473 22.26l-5.19 7.348a.934.934 0 00.773 1.457.947.947 0 00.781-.423l5.135-7.273a.994.994 0 00.211-.59.934.934 0 00-1.71-.52z" fill="url(#paint7_linear_2507_579)"/><path fill-rule="evenodd" clip-rule="evenodd" d="M3.428 20.141l2.22.003.753-3.474c.377-1.715 1.31-4.87 2.42-4.868.227 0 .407.127.407.55 0 .17-.034.382-.099.657l-.901 4.024c-.164.74-.295 1.46-.296 1.885 0 .974.39 1.503.961 1.504 1.322.001 2.09-1.65 2.792-2.857l-.342-.318c-.163.317-.703 1.376-1.045 1.376-.115 0-.164-.085-.163-.318 0-.148.033-.381.082-.635l1.032-4.531c.065-.255.18-.932.18-1.27.002-1.039-.52-1.866-1.351-1.867-1.207-.001-2.562 1.481-3.479 3.958l-.032-.043.885-3.684-.163-.234c-.817.445-2.284.591-3.133.59l-.082.573c.685 0 .946.043.945.509 0 .233-.049.762-.13 1.144l-1.46 7.326zm13.198-9.857l-.163-.276c-.816.445-2.284.592-3.344.59l-.082.573c.717.064.962.064.962.487 0 .213-.066.764-.165 1.166l-1 4.51c-.147.699-.229 1.25-.23 1.694 0 .995.358 1.398.962 1.398 1.32.002 2.17-1.564 2.808-2.856l-.342-.276c-.246.446-.67 1.334-1.062 1.333-.114 0-.163-.085-.163-.253 0-.085.017-.17.033-.254l1.786-7.836zM14.88 7.191c-.001.82.498 1.487 1.129 1.488.63 0 1.145-.666 1.146-1.486.001-.82-.512-1.468-1.143-1.469-.631 0-1.131.648-1.132 1.467zm2.057 12.964l2.203.002.851-3.875.72-.614c.566 3.814 1.021 4.767 2.229 4.768 1.321.001 1.844-1.163 2.27-2.581l-.343-.234c-.163.445-.344 1.016-.783 1.016-.49-.001-.783-.382-1.448-4.809l1.878-1.968c.54-.53 1.045-.995 1.421-.994v-.572l-3.263-.004-.049.573c.408 0 .816.233.816.636 0 .381-.328 1.016-1.373 1.99l-1.813 1.777-.032-.043 2.262-10.376-.18-.276c-.963.53-2.267.57-3.247.632l-.081.573c.766.021.896.106.895.488 0 .21-.015.508-.163 1.164l-2.77 12.727zM27.872 8.719l.729.309 2.962-.73c.326-.063.644-.307.776-.831.11-.443-.062-.917-.511-1.108-.28-.117-.697-.026-1.036.298l-2.92 2.062zm4.683 3.17c.001-1.25-.749-1.865-1.629-1.866-2.642-.003-5.125 3.511-5.129 6.9-.002 2.055.844 3.516 2.509 3.518 1.485.002 2.512-1.162 3.46-2.496l-.325-.466c-.604.762-1.356 1.482-2.237 1.48-1.01 0-1.206-.848-1.205-1.378 0-.57.148-1.46.23-1.778 1.485-.359 4.324-1.309 4.326-3.914zm-1.826-.362c-.001 1.335-1.243 3.303-2.402 3.493.115-.975 1.033-4.321 1.962-4.32.278 0 .44.276.44.827z" fill="#fff"/></g><defs><linearGradient id="paint0_linear_2507_579" x1="281.43" y1="118.87" x2="69.56" y2="118.87" gradientUnits="userSpaceOnUse"><stop stop-color="#FA0"/><stop offset="1" stop-color="#FF4600"/></linearGradient><linearGradient id="paint1_linear_2507_579" x1="325.2" y1="24.52" x2="963.24" y2="497.17" gradientUnits="userSpaceOnUse"><stop stop-color="#FA0"/><stop offset="1" stop-color="#FF4600"/></linearGradient><linearGradient id="paint2_linear_2507_579" x1="54.89" y1="130.91" x2="454.35" y2="-21.79" gradientUnits="userSpaceOnUse"><stop stop-color="#FA0"/><stop offset="1" stop-color="#FF4600"/></linearGradient><linearGradient id="paint3_linear_2507_579" x1="211.85" y1="-19.32" x2="16.91" y2="290.66" gradientUnits="userSpaceOnUse"><stop stop-color="#FA0"/><stop offset="1" stop-color="#FF4600"/></linearGradient><linearGradient id="paint5_linear_2507_579" x1="219.66" y1="-73.47" x2="-76.62" y2="676.78" gradientUnits="userSpaceOnUse"><stop stop-color="#FA0"/><stop offset="1" stop-color="#FF4600"/></linearGradient><linearGradient id="paint6_linear_2507_579" x1="226.44" y1="-73.47" x2="-69.84" y2="676.79" gradientUnits="userSpaceOnUse"><stop stop-color="#FA0"/><stop offset="1" stop-color="#FF4600"/></linearGradient><linearGradient id="paint7_linear_2507_579" x1="583.35" y1="-73.46" x2="42.75" y2="646.3" gradientUnits="userSpaceOnUse"><stop stop-color="#FA0"/><stop offset="1" stop-color="#FF4600"/></linearGradient><radialGradient id="paint4_radial_2507_579" cx="0" cy="0" r="1" gradientUnits="userSpaceOnUse" gradientTransform="rotate(120.95 -52.775 .633) scale(101.771 98.9866)"><stop stop-color="#FA0"/><stop offset="1" stop-color="#FF4600"/></radialGradient><clipPath id="clip0_2507_579"><path fill="#fff" d="M0 0h36v36H0z"/></clipPath></defs></svg>