<svg width="64" height="64" viewBox="0 0 64 64" fill="none" xmlns="http://www.w3.org/2000/svg"><path fill-rule="evenodd" clip-rule="evenodd" d="M58.058 28.587s.897.535 1.414 1.443c0 0 .523.916.523 1.97 0 0 0 1.054-.523 1.97 0 0-.522.915-1.429 1.451l-35.95 21.985s-.918.567-2.005.59c0 0-1.086.025-2.035-.505 0 0-.95-.529-1.5-1.465 0 0-.552-.937-.553-2.024V10s.001-1.09.552-2.026c0 0 .551-.937 1.5-1.466 0 0 .95-.529 2.036-.505 0 0 1.087.024 2.012.595l35.958 21.99zM20 10.002L55.972 32 20.007 53.994l-.007.004V10.002z" fill="#fff"/></svg>