<svg width="32" height="32" viewBox="0 0 32 32" fill="none" xmlns="http://www.w3.org/2000/svg"><path d="M31.596 1.05a2.34 2.34 0 00-.826-.771A2.218 2.218 0 0029.696 0H12.574a2.504 2.504 0 00-1.472.474c-.433.31-.766.752-.954 1.266L.153 28.716A2.519 2.519 0 00.4 30.951c.211.323.495.588.826.77.33.183.699.279 1.073.279h17.12a2.504 2.504 0 001.472-.473c.434-.311.766-.753.954-1.267l9.996-26.976a2.517 2.517 0 00-.245-2.234z" fill="#fff"/><path d="M19.41 30.118H2.3a.49.49 0 01-.234-.063.517.517 0 01-.18-.168.548.548 0 01-.057-.488l8.682-23.436A6.35 6.35 0 0112.751 3a5.906 5.906 0 013.446-1.12h13.497a.49.49 0 01.234.064c.072.04.133.098.18.168a.548.548 0 01.056.488l-9.989 26.966a.855.855 0 01-.3.4.795.795 0 01-.465.152z" fill="#FFF100"/><path d="M22.816 18.18l-5.146 4.083c.256-1.305.61-2.587 1.06-3.833l-4.236 4.526-.628 5.059 3.338.517c-.032-.443-.048-.88-.049-1.314a8.342 8.342 0 014.852-2.587l2.298-6.203-1.489-.248zM18.277 16.81l.183-.08v-.005a5.338 5.338 0 001.687-1.32c.473-.553.835-1.2 1.065-1.902a5.812 5.812 0 00-.28-4.315 5.534 5.534 0 00-1.303-1.733 5.247 5.247 0 00-1.843-1.067 5.082 5.082 0 00-4.11.404l-3.694.61L4.19 23.035l14.013-6.19.074-.035z" fill="#fff"/><path d="M14.658 17.17a.09.09 0 00.064-.013.098.098 0 00.04-.054.104.104 0 00-.002-.068.097.097 0 00-.045-.05 5.878 5.878 0 01-.64-.381.088.088 0 01-.034-.037.093.093 0 01.012-.098.085.085 0 01.041-.027l.386-.134a.239.239 0 00.143-.132.261.261 0 00.005-.2l-.393-1.018a.825.825 0 00-.423-.457l-.876-.402a.439.439 0 00-.335-.02.464.464 0 00-.258.224.139.139 0 01-.048.06.13.13 0 01-.194-.054 6.406 6.406 0 01-.367-1.015 1.916 1.916 0 01.047-1.142 1.82 1.82 0 01.683-.892l.921-.627a.55.55 0 00.166-.176.58.58 0 00.079-.233l.197-1.733a.265.265 0 00-.049-.186.243.243 0 00-.158-.098l-.322-.05a.384.384 0 01-.189-.086.43.43 0 01-.056-.585 4.866 4.866 0 012.245-1.643c2.572-.849 5.728.383 6.771 2.804.788 1.828.889 4.373-1.1 7.274a.17.17 0 00.013.21.151.151 0 00.2.022 7.888 7.888 0 002.629-3.308 8.307 8.307 0 00.6-4.259 8.164 8.164 0 00-1.602-3.963 7.622 7.622 0 00-3.337-2.511 7.273 7.273 0 00-4.097-.324 7.482 7.482 0 00-3.659 1.957A8.033 8.033 0 009.564 7.41a8.33 8.33 0 00-.017 4.304 7.75 7.75 0 001.859 3.445 7.239 7.239 0 003.252 2.01z" fill="#000"/><path d="M21.224 13.637c.509-.93.683-2.02.492-3.074-.237-1.322-.751-2.041-1.222-2.176l-.213-.052a.238.238 0 00-.213.05.271.271 0 00-.093.207l.017 1.708a.91.91 0 00.254.621c.317.314.575.686.762 1.099a2.025 2.025 0 01.096 1.565.071.071 0 000 .052c.006.016.019.03.035.037a.063.063 0 00.05 0 .067.067 0 00.035-.037zM16.641 8.251a.633.633 0 00.565.105l1.355-.414a.23.23 0 00.126-.092c.031-.045.046-.1.043-.155l-.032-.513a.836.836 0 00-.169-.455.776.776 0 00-.387-.271 4.539 4.539 0 00-1.76-.377.945.945 0 00-.497.067.992.992 0 00-.4.314 3.147 3.147 0 00-.281.42.252.252 0 00-.023.168.243.243 0 00.088.142l1.372 1.061zM16.799 10.025l-1.44.964a.601.601 0 00-.226.282.635.635 0 00-.029.366l.34 1.553c.027.126.093.24.188.325a.566.566 0 00.336.144l1.741.128a.56.56 0 00.351-.093.602.602 0 00.23-.293l.577-1.557a.635.635 0 00.022-.369.611.611 0 00-.186-.313l-1.22-1.089a.56.56 0 00-.685-.048zM23.503 17.729a7.675 7.675 0 00-2.272-.533c-.537-.068-1.285-.102-2.07-.14a.164.164 0 01-.104-.038.178.178 0 01-.06-.096c-.022-.11.062-.162.138-.217.229-.165.46-.33.688-.532a.585.585 0 00.094-.726.138.138 0 00-.06-.05.13.13 0 00-.075-.009l-1.313.306a1.132 1.132 0 00-.605.371l-.784.928a.172.172 0 000 .228.541.541 0 00.4.17c3.812.214 4.27.902 1.53 2.908a16.953 16.953 0 00-3.669 3.586 19.728 19.728 0 013.388-5.453.176.176 0 00.01-.224.162.162 0 00-.098-.063.157.157 0 00-.112.021c-3.886 2.369-7.17 5.684-9.572 9.664a53.366 53.366 0 00-7.043 1.351l-.085.22a.556.556 0 00.057.488c.046.07.107.129.18.17a.49.49 0 00.233.062H19.41a.794.794 0 00.462-.151.855.855 0 00.3-.397l.78-2.107a65.092 65.092 0 00-5.736-.103 6.107 6.107 0 011.374-2.695 16.742 16.742 0 015.402-3.873c2.168-1.082 3.471-2.304 1.51-3.067z" fill="#000"/></svg>