<svg width="24" height="24" viewBox="0 0 24 24" fill="none" xmlns="http://www.w3.org/2000/svg"><path d="M8.25 5.25v13.5a.75.75 0 001.5 0V5.25a.75.75 0 10-1.5 0z" fill="#89212A"/><path fill-rule="evenodd" clip-rule="evenodd" d="M1.5 18v-2.325s-.003-.534.338-.95c0 0 .341-.415.87-.518 0 0 .769-.163 1.273-.785 0 0 .503-.622.503-1.422 0 0 0-.8-.503-1.422 0 0-.504-.622-1.287-.788 0 0-.515-.1-.856-.515 0 0-.341-.416-.338-.954V6s0-.621.44-1.06c0 0 .439-.44 1.06-.44h18s.621 0 1.06.44c0 0 .44.439.44 1.06v2.325s.003.534-.338.95c0 0-.341.415-.87.518 0 0-.769.163-1.273.785 0 0-.503.622-.503 1.422 0 0 0 .8.503 1.422 0 0 .504.622 1.287.788 0 0 .514.1.856.515 0 0 .341.416.338.954V18s0 .621-.44 1.06c0 0-.439.44-1.06.44H3s-.621 0-1.06-.44c0 0-.44-.439-.44-1.06zM3 18h18v-2.322h-.006s-1.302-.277-2.14-1.312c0 0-.838-1.034-.838-2.366 0 0 0-1.332.838-2.366 0 0 .835-1.032 2.146-1.312V6H3v2.322h.006s1.302.277 2.14 1.312c0 0 .838 1.034.838 2.366 0 0 0 1.332-.838 2.366 0 0-.835 1.032-2.146 1.313V18z" fill="#89212A"/></svg>