<svg width="24" height="24" viewBox="0 0 24 24" fill="none" xmlns="http://www.w3.org/2000/svg"><rect width="24" height="24" rx="12" fill="#89212A"/><path fill-rule="evenodd" clip-rule="evenodd" d="M10.54 10.3v-.624a4.825 4.825 0 00-.654-.048 4.857 4.857 0 00-4.851 4.852c0 1.641.82 3.094 2.07 3.972a4.832 4.832 0 01-1.302-3.303A4.856 4.856 0 0110.54 10.3z" fill="#C5143A"/><path fill-rule="evenodd" clip-rule="evenodd" d="M10.654 17.364c1.194 0 2.168-.949 2.212-2.132l.004-10.563h1.93A3.66 3.66 0 0114.737 4h-2.635l-.005 10.563a2.216 2.216 0 01-2.21 2.132 2.2 2.2 0 01-1.029-.254 2.211 2.211 0 001.796.924zm7.75-9.11v-.587c-.709 0-1.403-.206-1.996-.594.52.6 1.22 1.014 1.997 1.181" fill="#C5143A"/><path fill-rule="evenodd" clip-rule="evenodd" d="M18.404 8.254v2.049a6.269 6.269 0 01-3.667-1.18v5.357a4.857 4.857 0 01-4.85 4.851 4.822 4.822 0 01-2.781-.88A4.837 4.837 0 0010.654 20a4.857 4.857 0 004.852-4.851V9.792a6.268 6.268 0 003.667 1.18V8.335c-.264 0-.52-.028-.769-.081" fill="#C5143A"/><path fill-rule="evenodd" clip-rule="evenodd" d="M14.737 14.48V9.123a6.268 6.268 0 003.667 1.18V8.254a3.669 3.669 0 01-1.996-1.181A3.674 3.674 0 0114.8 4.669h-1.93l-.004 10.563a2.211 2.211 0 01-4.007 1.209A2.218 2.218 0 017.67 14.48a2.218 2.218 0 012.215-2.216c.228 0 .447.038.654.103V10.3a4.856 4.856 0 00-4.737 4.849c0 1.275.496 2.436 1.303 3.303.814.573 1.785.88 2.78.88a4.857 4.857 0 004.851-4.852z" fill="#C5143A"/></svg>